<?xml-stylesheet href="https://s3.amazonaws.com/maker.works.boards/css/blackpcb.css" type="text/css"?><svg xmlns="http://www.w3.org/2000/svg" version="1.1" xmlns:xlink="http://www.w3.org/1999/xlink" stroke-width="0" stroke-linecap="round" stroke-linejoin="round" width="3.455in" height="2.9920999999999998in" id="pcb_bottom" viewBox="1.9 2 3455 2992.1">
<defs>
	<style>
	.pcb_board-fr4 {color:dimgrey;}
	.pcb_board-cu {color: lightgrey;}
	.pcb_board-cf {color: silver;}
	.pcb_board-sm {color: #1A661A;opacity: 0.75;}
	.pcb_board-ss {color: white;}
	.pcb_board-sp {color: silver;}
	.pcb_board-out {color: #1A661A;}
	</style>
<circle cx="0" cy="0" r="8" id="tool-T10-pad-1000"/><circle cx="0" cy="0" r="10" id="tool-T11-pad-1001"/><circle cx="0" cy="0" r="16.5" id="tool-T12-pad-1002"/><circle cx="0" cy="0" r="19.5" id="tool-T13-pad-1003"/><circle cx="0" cy="0" r="19.5" id="tool-T14-pad-1004"/><circle cx="0" cy="0" r="63" id="tool-T15-pad-1005"/><circle cx="0" cy="0" r="157.5" id="tool-D10-pad-1006"/><circle cx="0" cy="0" r="39.35" id="tool-D11-pad-1007"/><circle cx="0" cy="0" r="33.45" id="tool-D12-pad-1008"/><rect x="-33.45" y="-33.45" width="66.9" height="66.9" id="tool-D13-pad-1009"/><rect x="-33.45" y="-33.45" width="66.9" height="66.9" rx="33.45" ry="33.45" id="tool-D14-pad-1010"/><circle cx="0" cy="0" r="30" id="tool-D15-pad-1011"/><circle cx="0" cy="0" r="19.7" id="tool-D16-pad-1012"/><circle cx="0" cy="0" r="12.8" id="tool-D18-pad-1014"/><circle cx="0" cy="0" r="15.75" id="tool-D20-pad-1016"/><circle cx="0" cy="0" r="47.25" id="tool-D13-pad-1021"/><circle cx="0" cy="0" r="41.35" id="tool-D14-pad-1022"/><rect x="-41.35" y="-41.35" width="82.7" height="82.7" id="tool-D15-pad-1023"/><rect x="-41.35" y="-41.35" width="82.7" height="82.7" rx="41.35" ry="41.35" id="tool-D16-pad-1024"/><circle cx="0" cy="0" r="37.85" id="tool-D17-pad-1025"/><circle cx="0" cy="0" r="27.55" id="tool-D18-pad-1026"/><circle cx="0" cy="0" r="20.65" id="tool-D19-pad-1027"/><mask id="gerber-mask_1029" color="#000"><rect x="507.34999999999997" y="542.8499999999999" width="2398.1" height="2261.1" fill="#fff"/><use x="2360.1" y="2087" xlink:href="#tool-D13-pad-1021"/><use x="2521.9" y="1139.4" xlink:href="#tool-D13-pad-1021"/><use x="2375.9" y="748" xlink:href="#tool-D13-pad-1021"/><use x="1082.6" y="748" xlink:href="#tool-D13-pad-1021"/><use x="936.1" y="1139.4" xlink:href="#tool-D13-pad-1021"/><use x="1098.3" y="2087" xlink:href="#tool-D13-pad-1021"/><use x="862.1" y="1884.3" xlink:href="#tool-D14-pad-1022"/><use x="762.1" y="1884.3" xlink:href="#tool-D15-pad-1023"/><use x="662.1" y="1884.3" xlink:href="#tool-D16-pad-1024"/><use x="562.1" y="1884.3" xlink:href="#tool-D16-pad-1024"/><use x="2714.2" y="1909.9" xlink:href="#tool-D17-pad-1025"/><use x="2586.2" y="2131.5" xlink:href="#tool-D17-pad-1025"/><use x="2867.6" y="1998.5" xlink:href="#tool-D17-pad-1025"/><use x="2739.6" y="2220.1" xlink:href="#tool-D17-pad-1025"/><use x="2714.2" y="1909.9" xlink:href="#tool-D17-pad-1025"/><use x="2586.2" y="2131.5" xlink:href="#tool-D17-pad-1025"/><use x="2867.6" y="1998.5" xlink:href="#tool-D17-pad-1025"/><use x="2739.6" y="2220.1" xlink:href="#tool-D17-pad-1025"/><use x="2378.6" y="2357.4" xlink:href="#tool-D18-pad-1026"/><path d="M 2421.4 2350.2 L 2363.4 2316.8 L 2335.9 2364.5 L 2393.8 2398 L 2421.4 2350.2 L 2421.4 2350.2 Z"/><use x="2335.3" y="2432.4" xlink:href="#tool-D18-pad-1026"/><path d="M 2378.1 2425.3 L 2320.1 2391.8 L 2292.5 2439.5 L 2350.5 2473 L 2378.1 2425.3 L 2378.1 2425.3 Z"/><use x="1160.1" y="2466.4" xlink:href="#tool-D19-pad-1027"/><path d="M 1155.7 2500.1 L 1191.5 2479.4 L 1164.5 2432.7 L 1128.7 2453.4 L 1155.7 2500.1 L 1155.7 2500.1 Z"/><use x="1091.6" y="2347.8" xlink:href="#tool-D19-pad-1027"/><path d="M 1087.2 2381.5 L 1123 2360.8 L 1096 2314.1 L 1060.2 2334.7 L 1087.2 2381.5 L 1087.2 2381.5 Z"/><use x="808.9" y="2281.5" xlink:href="#tool-D14-pad-1022"/><path d="M 752.5 2266.4 L 793.8 2338 L 865.4 2296.6 L 824.1 2225 L 752.5 2266.4 L 752.5 2266.4 Z"/><use x="758.9" y="2194.9" xlink:href="#tool-D14-pad-1022"/><path stroke-width="82.7" fill="none" d="M 758.9 2194.9 L 758.9 2194.9"/><use x="708.9" y="2108.3" xlink:href="#tool-D14-pad-1022"/><path stroke-width="82.7" fill="none" d="M 708.9 2108.3 L 708.9 2108.3"/><use x="1929.4" y="2762.6" xlink:href="#tool-D15-pad-1023"/><use x="1929.4" y="2662.6" xlink:href="#tool-D16-pad-1024"/><use x="1829.4" y="2762.6" xlink:href="#tool-D16-pad-1024"/><use x="1829.4" y="2662.6" xlink:href="#tool-D16-pad-1024"/><use x="1729.4" y="2762.6" xlink:href="#tool-D16-pad-1024"/><use x="1729.4" y="2662.6" xlink:href="#tool-D16-pad-1024"/><use x="1629.4" y="2762.6" xlink:href="#tool-D16-pad-1024"/><use x="1629.4" y="2662.6" xlink:href="#tool-D16-pad-1024"/><use x="1529.4" y="2762.6" xlink:href="#tool-D16-pad-1024"/><use x="1529.4" y="2662.6" xlink:href="#tool-D16-pad-1024"/><use x="1033.7" y="2490.3" xlink:href="#tool-D18-pad-1026"/><path d="M 1018.5 2530.9 L 1076.5 2497.4 L 1048.9 2449.7 L 991 2483.1 L 1018.5 2530.9 L 1018.5 2530.9 Z"/><use x="990.4" y="2415.3" xlink:href="#tool-D18-pad-1026"/><path d="M 975.2 2455.9 L 1033.2 2422.4 L 1005.6 2374.7 L 947.7 2408.1 L 975.2 2455.9 L 975.2 2455.9 Z"/></mask><g id="pcb_bottom-cu" fill="currentColor" stroke="currentColor"><use x="193.6" y="1498" xlink:href="#tool-D10-pad-1006"/><use x="961.3" y="2827.6" xlink:href="#tool-D10-pad-1006"/><use x="2496.7" y="2828" xlink:href="#tool-D10-pad-1006"/><use x="3264.8" y="1498.4" xlink:href="#tool-D10-pad-1006"/><use x="2496.7" y="168.1" xlink:href="#tool-D10-pad-1006"/><use x="961.7" y="168.1" xlink:href="#tool-D10-pad-1006"/><use x="2360.1" y="2087" xlink:href="#tool-D11-pad-1007"/><use x="2521.9" y="1139.4" xlink:href="#tool-D11-pad-1007"/><use x="2375.9" y="748" xlink:href="#tool-D11-pad-1007"/><use x="1082.6" y="748" xlink:href="#tool-D11-pad-1007"/><use x="936.1" y="1139.4" xlink:href="#tool-D11-pad-1007"/><use x="1098.3" y="2087" xlink:href="#tool-D11-pad-1007"/><use x="862.1" y="1884.3" xlink:href="#tool-D12-pad-1008"/><use x="762.1" y="1884.3" xlink:href="#tool-D13-pad-1009"/><use x="662.1" y="1884.3" xlink:href="#tool-D14-pad-1010"/><use x="562.1" y="1884.3" xlink:href="#tool-D14-pad-1010"/><use x="2714.2" y="1909.9" xlink:href="#tool-D15-pad-1011"/><use x="2586.2" y="2131.5" xlink:href="#tool-D15-pad-1011"/><use x="2867.6" y="1998.5" xlink:href="#tool-D15-pad-1011"/><use x="2739.6" y="2220.1" xlink:href="#tool-D15-pad-1011"/><use x="2714.2" y="1909.9" xlink:href="#tool-D15-pad-1011"/><use x="2586.2" y="2131.5" xlink:href="#tool-D15-pad-1011"/><use x="2867.6" y="1998.5" xlink:href="#tool-D15-pad-1011"/><use x="2739.6" y="2220.1" xlink:href="#tool-D15-pad-1011"/><use x="2378.6" y="2357.4" xlink:href="#tool-D16-pad-1012"/><path d="M 2410.6 2353.1 L 2366.3 2327.5 L 2346.6 2361.6 L 2390.9 2387.2 L 2410.6 2353.1 L 2410.6 2353.1 Z"/><use x="2335.3" y="2432.4" xlink:href="#tool-D16-pad-1012"/><path d="M 2367.3 2428.1 L 2323 2402.5 L 2303.3 2436.6 L 2347.6 2462.2 L 2367.3 2428.1 L 2367.3 2428.1 Z"/><use x="1160.1" y="2466.4" xlink:href="#tool-D18-pad-1014"/><path d="M 1158.6 2489.3 L 1180.7 2476.6 L 1161.6 2443.5 L 1139.5 2456.3 L 1158.6 2489.3 L 1158.6 2489.3 Z"/><use x="1091.6" y="2347.8" xlink:href="#tool-D18-pad-1014"/><path d="M 1090.1 2370.7 L 1112.2 2357.9 L 1093.1 2324.8 L 1071 2337.6 L 1090.1 2370.7 L 1090.1 2370.7 Z"/><use x="808.9" y="2281.5" xlink:href="#tool-D12-pad-1008"/><path d="M 763.2 2269.2 L 796.7 2327.2 L 854.6 2293.7 L 821.2 2235.8 L 763.2 2269.2 L 763.2 2269.2 Z"/><use x="758.9" y="2194.9" xlink:href="#tool-D12-pad-1008"/><path stroke-width="66.9" fill="none" d="M 758.9 2194.9 L 758.9 2194.9"/><use x="708.9" y="2108.3" xlink:href="#tool-D12-pad-1008"/><path stroke-width="66.9" fill="none" d="M 708.9 2108.3 L 708.9 2108.3"/><use x="1929.4" y="2762.6" xlink:href="#tool-D13-pad-1009"/><use x="1929.4" y="2662.6" xlink:href="#tool-D14-pad-1010"/><use x="1829.4" y="2762.6" xlink:href="#tool-D14-pad-1010"/><use x="1829.4" y="2662.6" xlink:href="#tool-D14-pad-1010"/><use x="1729.4" y="2762.6" xlink:href="#tool-D14-pad-1010"/><use x="1729.4" y="2662.6" xlink:href="#tool-D14-pad-1010"/><use x="1629.4" y="2762.6" xlink:href="#tool-D14-pad-1010"/><use x="1629.4" y="2662.6" xlink:href="#tool-D14-pad-1010"/><use x="1529.4" y="2762.6" xlink:href="#tool-D14-pad-1010"/><use x="1529.4" y="2662.6" xlink:href="#tool-D14-pad-1010"/><use x="1033.7" y="2490.3" xlink:href="#tool-D16-pad-1012"/><path d="M 1021.4 2520.1 L 1065.7 2494.5 L 1046.1 2460.4 L 1001.7 2486 L 1021.4 2520.1 L 1021.4 2520.1 Z"/><use x="990.4" y="2415.3" xlink:href="#tool-D16-pad-1012"/><path d="M 978.1 2445.1 L 1022.4 2419.5 L 1002.7 2385.4 L 958.4 2411 L 978.1 2445.1 L 978.1 2445.1 Z"/><use x="1531.4" y="2870.1" xlink:href="#tool-D20-pad-1016"/><path stroke-width="15.7" fill="none" d="M 2105.1 2662.6 L 1929.4 2662.6 M 2335.3 2432.4 L 2105.1 2662.6 M 2378.6 2105.5 L 2360.1 2087 M 2378.6 2357.4 L 2378.6 2105.5 M 1093.4 2403.9 L 1093.4 2375.2 M 1093.4 2375.2 L 1093.4 2350.8 M 1033.7 2463.6 L 1093.4 2403.9 M 1033.7 2490.3 L 1033.7 2463.6 M 990.4 2012.6 L 990.4 2415.3 M 862.1 1884.3 L 990.4 2012.6 M 2867.6 1485 L 2867.6 1998.5 M 2521.9 1139.4 L 2867.6 1485 M 2867.6 2092.1 L 2739.6 2220.1 M 2867.6 1998.5 L 2867.6 2092.1 M 1346.7 2662.6 L 1529.4 2662.6 M 1245.9 2561.8 L 1346.7 2662.6 M 1245.9 2118.9 L 1245.9 2561.8 M 958.9 1831.9 L 1245.9 2118.9 M 814.4 1831.9 L 958.9 1831.9 M 762.1 1884.3 L 814.4 1831.9 M 1531.4 2764.6 L 1529.4 2762.6 M 1531.4 2870.1 L 1531.4 2764.6 M 2586.2 2037.8 L 2714.2 1909.9 M 2586.2 2131.5 L 2586.2 2037.8 M 1182.9 2438.7 L 1158.3 2463.3 M 1154 2087 L 1182.9 2116 M 1098.3 2087 L 1154 2087 M 1182.9 2116 L 1182.9 2438.7 M 908.5 2449.2 L 908.5 2260.2 M 1370 2910.6 L 908.5 2449.2 M 1581.4 2910.6 L 1370 2910.6 M 1729.4 2762.6 L 1581.4 2910.6 M 629.8 2141.3 L 629.8 1916.5 M 629.8 1916.5 L 662.1 1884.3 M 683.4 2194.9 L 629.8 2141.3 M 758.9 2194.9 L 683.4 2194.9 M 774.7 2108.3 L 908.5 2242.1 M 908.5 2242.1 L 908.5 2260.2 M 708.9 2108.3 L 774.7 2108.3"/></g><mask id="pcb_bottom_mech-mask" fill="#fff" stroke="#fff" fill-rule="evenodd"><path stroke-width="0" d="M 865.7 2 L 1.9 1498 L 865.7 2994.1 L 2593.2 2994.1 L 3456.9 1498 L 2593.2 2 Z M 1896 324 A 166.6 166.6 0 0 0 1562.8 324 A 166.6 166.6 0 0 0 1896 324 M 1048.3 1576.8 L 1048.3 1324.8 A 681.1 681.1 0 1 1 2410.5 1324.8 L 2410.5 1576.8 A 681.1 681.1 0 1 1 1048.3 1576.8"/><g id="pcb_bottom-drl" fill="#000" stroke="#000"><use x="1531.4" y="2870.1" xlink:href="#tool-T10-pad-1000"/><use x="2375.9" y="748" xlink:href="#tool-T11-pad-1001"/><use x="2521.9" y="1139.4" xlink:href="#tool-T11-pad-1001"/><use x="1098.3" y="2087" xlink:href="#tool-T11-pad-1001"/><use x="2360.1" y="2087" xlink:href="#tool-T11-pad-1001"/><use x="936.1" y="1139.4" xlink:href="#tool-T11-pad-1001"/><use x="1082.6" y="748" xlink:href="#tool-T11-pad-1001"/><use x="562.1" y="1884.3" xlink:href="#tool-T12-pad-1002"/><use x="662.1" y="1884.3" xlink:href="#tool-T12-pad-1002"/><use x="762.1" y="1884.3" xlink:href="#tool-T12-pad-1002"/><use x="862.1" y="1884.3" xlink:href="#tool-T12-pad-1002"/><use x="2586.2" y="2131.5" xlink:href="#tool-T13-pad-1003"/><use x="2714.2" y="1909.9" xlink:href="#tool-T13-pad-1003"/><use x="2739.6" y="2220.1" xlink:href="#tool-T13-pad-1003"/><use x="2867.6" y="1998.5" xlink:href="#tool-T13-pad-1003"/><use x="2586.2" y="2131.5" xlink:href="#tool-T13-pad-1003"/><use x="2714.2" y="1909.9" xlink:href="#tool-T13-pad-1003"/><use x="2739.6" y="2220.1" xlink:href="#tool-T13-pad-1003"/><use x="2867.6" y="1998.5" xlink:href="#tool-T13-pad-1003"/><use x="1529.4" y="2762.6" xlink:href="#tool-T14-pad-1004"/><use x="1529.4" y="2662.6" xlink:href="#tool-T14-pad-1004"/><use x="1629.4" y="2762.6" xlink:href="#tool-T14-pad-1004"/><use x="1629.4" y="2662.6" xlink:href="#tool-T14-pad-1004"/><use x="1729.4" y="2762.6" xlink:href="#tool-T14-pad-1004"/><use x="1729.4" y="2662.6" xlink:href="#tool-T14-pad-1004"/><use x="1829.4" y="2762.6" xlink:href="#tool-T14-pad-1004"/><use x="1829.4" y="2662.6" xlink:href="#tool-T14-pad-1004"/><use x="1929.4" y="2762.6" xlink:href="#tool-T14-pad-1004"/><use x="1929.4" y="2662.6" xlink:href="#tool-T14-pad-1004"/><use x="708.9" y="2108.3" xlink:href="#tool-T14-pad-1004"/><use x="758.9" y="2194.9" xlink:href="#tool-T14-pad-1004"/><use x="808.9" y="2281.5" xlink:href="#tool-T14-pad-1004"/><use x="2496.7" y="168.1" xlink:href="#tool-T15-pad-1005"/><use x="3264.8" y="1498.4" xlink:href="#tool-T15-pad-1005"/><use x="2496.7" y="2828" xlink:href="#tool-T15-pad-1005"/><use x="961.3" y="2827.6" xlink:href="#tool-T15-pad-1005"/><use x="193.6" y="1498" xlink:href="#tool-T15-pad-1005"/><use x="961.7" y="168.1" xlink:href="#tool-T15-pad-1005"/></g></mask></defs><g mask="url(#pcb_bottom_mech-mask)" transform="translate(3458.8,2996.1) scale(-1,-1)"><rect x="1.9" y="2" width="3455" height="2992.1" fill="currentColor" class="pcb_board-fr4"/><use class="pcb_board-cu" xlink:href="#pcb_bottom-cu"/><g><defs><g id="pcb_bottom-sm" fill="currentColor" stroke="currentColor"><path d="M 2389.6 793.5 L 2398.2 789.9 L 2406 784.7 L 2412.6 778.1 L 2417.7 770.4 L 2421.3 761.8 L 2423.1 752.7 L 2423.1 743.4 L 2421.3 734.3 L 2417.7 725.7 L 2412.6 717.9 L 2406 711.3 L 2398.2 706.2 L 2389.6 702.6 L 2380.5 700.8 L 2371.2 700.8 L 2362.1 702.6 L 2353.5 706.2 L 2345.7 711.3 L 2339.2 717.9 L 2334 725.7 L 2330.4 734.3 L 2328.6 743.4 L 2328.6 752.7 L 2330.4 761.8 L 2334 770.4 L 2339.2 778.1 L 2345.7 784.7 L 2353.5 789.9 L 2362.1 793.5 L 2371.2 795.3 L 2380.5 795.3 L 2389.6 793.5 L 2389.6 793.5 Z"/><path d="M 1096.3 793.5 L 1104.9 789.9 L 1112.7 784.7 L 1119.2 778.1 L 1124.4 770.4 L 1128 761.8 L 1129.8 752.7 L 1129.8 743.4 L 1128 734.3 L 1124.4 725.7 L 1119.2 717.9 L 1112.7 711.3 L 1104.9 706.2 L 1096.3 702.6 L 1087.2 700.8 L 1077.9 700.8 L 1068.8 702.6 L 1060.2 706.2 L 1052.4 711.3 L 1045.9 717.9 L 1040.7 725.7 L 1037.1 734.3 L 1035.3 743.4 L 1035.3 752.7 L 1037.1 761.8 L 1040.7 770.4 L 1045.9 778.1 L 1052.4 784.7 L 1060.2 789.9 L 1068.8 793.5 L 1077.9 795.3 L 1087.2 795.3 L 1096.3 793.5 L 1096.3 793.5 Z"/><path d="M 949.9 1184.8 L 958.5 1181.2 L 966.2 1176.1 L 972.8 1169.5 L 978 1161.7 L 981.5 1153.2 L 983.3 1144 L 983.3 1134.7 L 981.5 1125.6 L 978 1117 L 972.8 1109.3 L 966.2 1102.7 L 958.5 1097.5 L 949.9 1093.9 L 940.7 1092.1 L 931.4 1092.1 L 922.3 1093.9 L 913.7 1097.5 L 906 1102.7 L 899.4 1109.3 L 894.2 1117 L 890.7 1125.6 L 888.9 1134.7 L 888.9 1144 L 890.7 1153.2 L 894.2 1161.7 L 899.4 1169.5 L 906 1176.1 L 913.7 1181.2 L 922.3 1184.8 L 931.4 1186.6 L 940.7 1186.6 L 949.9 1184.8 L 949.9 1184.8 Z"/><path d="M 2535.7 1184.8 L 2544.3 1181.2 L 2552 1176.1 L 2558.6 1169.5 L 2563.8 1161.7 L 2567.3 1153.2 L 2569.2 1144 L 2569.2 1134.7 L 2567.3 1125.6 L 2563.8 1117 L 2558.6 1109.3 L 2552 1102.7 L 2544.3 1097.5 L 2535.7 1093.9 L 2526.6 1092.1 L 2517.3 1092.1 L 2508.1 1093.9 L 2499.5 1097.5 L 2491.8 1102.7 L 2485.2 1109.3 L 2480.1 1117 L 2476.5 1125.6 L 2474.7 1134.7 L 2474.7 1144 L 2476.5 1153.2 L 2480.1 1161.7 L 2485.2 1169.5 L 2491.8 1176.1 L 2499.5 1181.2 L 2508.1 1184.8 L 2517.3 1186.6 L 2526.6 1186.6 L 2535.7 1184.8 L 2535.7 1184.8 Z"/><path d="M 867 1925.4 L 874.1 1924 L 881.7 1920.9 L 888.4 1916.4 L 894.2 1910.6 L 898.7 1903.8 L 901.8 1896.3 L 903.4 1888.3 L 903.4 1880.2 L 901.8 1872.2 L 898.7 1864.7 L 894.2 1857.9 L 888.4 1852.1 L 881.7 1847.6 L 874.1 1844.5 L 867 1843.1 L 866.2 1842.9 L 858 1842.9 L 857.1 1843.1 L 850 1844.5 L 842.5 1847.6 L 835.7 1852.1 L 830 1857.9 L 825.4 1864.7 L 822.3 1872.2 L 820.7 1880.2 L 820.7 1888.3 L 822.3 1896.3 L 825.4 1903.8 L 830 1910.6 L 835.7 1916.4 L 842.5 1920.9 L 850 1924 L 857.1 1925.4 L 858 1925.6 L 866.2 1925.6 L 867 1925.4 L 867 1925.4 Z"/><path d="M 567.1 1925.3 L 570.2 1925 L 575.4 1923.4 L 578 1922.6 L 585.2 1918.8 L 591.5 1913.6 L 596.6 1907.3 L 600.5 1900.1 L 600.5 1900.1 L 602.8 1892.4 L 603.6 1884.3 L 602.8 1876.1 L 601.6 1872 L 600.5 1868.4 L 596.6 1861.2 L 591.5 1854.9 L 585.2 1849.7 L 578 1845.9 L 575.4 1845.1 L 570.2 1843.5 L 567.1 1843.2 L 564.1 1842.9 L 560 1842.9 L 557 1843.2 L 554 1843.5 L 548.8 1845.1 L 546.2 1845.9 L 539 1849.7 L 532.7 1854.9 L 527.5 1861.2 L 523.7 1868.4 L 522.6 1872 L 521.3 1876.1 L 520.5 1884.3 L 521.3 1892.4 L 523.7 1900.1 L 523.7 1900.1 L 527.5 1907.3 L 532.7 1913.6 L 539 1918.8 L 546.2 1922.6 L 548.8 1923.4 L 554 1925 L 557 1925.3 L 560 1925.6 L 564.1 1925.6 L 567.1 1925.3 L 567.1 1925.3 Z"/><path d="M 667.1 1925.3 L 670.2 1925 L 675.4 1923.4 L 678 1922.6 L 685.2 1918.8 L 691.5 1913.6 L 696.6 1907.3 L 700.5 1900.1 L 700.5 1900.1 L 702.8 1892.4 L 703.6 1884.3 L 702.8 1876.1 L 701.6 1872 L 700.5 1868.4 L 696.6 1861.2 L 691.5 1854.9 L 685.2 1849.7 L 678 1845.9 L 675.4 1845.1 L 670.2 1843.5 L 667.1 1843.2 L 664.1 1842.9 L 660 1842.9 L 657 1843.2 L 654 1843.5 L 648.8 1845.1 L 646.2 1845.9 L 639 1849.7 L 632.7 1854.9 L 627.5 1861.2 L 623.7 1868.4 L 622.6 1872 L 621.3 1876.1 L 620.5 1884.3 L 621.3 1892.4 L 623.7 1900.1 L 623.7 1900.1 L 627.5 1907.3 L 632.7 1913.6 L 639 1918.8 L 646.2 1922.6 L 648.8 1923.4 L 654 1925 L 657 1925.3 L 660 1925.6 L 664.1 1925.6 L 667.1 1925.3 L 667.1 1925.3 Z"/><path d="M 803.4 1842.9 L 720.7 1842.9 L 720.7 1925.6 L 803.4 1925.6 L 803.4 1842.9 L 803.4 1842.9 Z"/><path d="M 2725.2 1946.3 L 2725.2 1946.3 L 2725.2 1946.3 L 2732.1 1943.4 L 2732.1 1943.4 L 2738.3 1939.3 L 2743.6 1934 L 2743.6 1934 L 2747.7 1927.8 L 2749.3 1924 L 2750.6 1920.9 L 2752 1913.6 L 2752 1906.1 L 2750.6 1898.8 L 2750.6 1898.8 L 2747.7 1891.9 L 2747.7 1891.9 L 2743.6 1885.7 L 2738.3 1880.5 L 2737.9 1880.2 L 2732.1 1876.3 L 2726.8 1874.1 L 2725.2 1873.5 L 2717.9 1872 L 2710.4 1872 L 2703.1 1873.5 L 2701.6 1874.1 L 2696.2 1876.3 L 2690.4 1880.2 L 2690 1880.5 L 2684.7 1885.7 L 2680.6 1891.9 L 2680.6 1891.9 L 2677.7 1898.8 L 2677.7 1898.8 L 2676.3 1906.1 L 2676.3 1913.6 L 2677.7 1920.9 L 2679 1924 L 2680.6 1927.8 L 2684.7 1934 L 2684.7 1934 L 2690 1939.3 L 2696.2 1943.4 L 2696.2 1943.4 L 2703.1 1946.3 L 2703.1 1946.3 L 2703.1 1946.3 L 2710.4 1947.8 L 2717.9 1947.8 L 2725.2 1946.3 L 2725.2 1946.3 Z"/><path d="M 2878.6 2034.9 L 2878.6 2034.9 L 2878.6 2034.9 L 2885.5 2032 L 2885.5 2032 L 2891.7 2027.9 L 2897 2022.6 L 2897 2022.6 L 2901.2 2016.4 L 2903.4 2011.1 L 2904 2009.5 L 2905.5 2002.2 L 2905.5 1994.7 L 2904 1987.4 L 2904 1987.4 L 2901.2 1980.5 L 2901.2 1980.5 L 2897 1974.3 L 2891.7 1969 L 2888.6 1967 L 2885.5 1964.9 L 2880.2 1962.7 L 2878.6 1962 L 2871.3 1960.6 L 2863.9 1960.6 L 2856.5 1962 L 2855 1962.7 L 2849.7 1964.9 L 2846.6 1967 L 2843.4 1969 L 2838.2 1974.3 L 2834 1980.5 L 2834 1980.5 L 2831.2 1987.4 L 2831.2 1987.4 L 2829.7 1994.7 L 2829.7 2002.2 L 2831.2 2009.5 L 2831.8 2011.1 L 2834 2016.4 L 2838.2 2022.6 L 2838.2 2022.6 L 2843.4 2027.9 L 2849.7 2032 L 2849.7 2032 L 2856.5 2034.9 L 2856.5 2034.9 L 2856.5 2034.9 L 2863.9 2036.3 L 2871.3 2036.3 L 2878.6 2034.9 L 2878.6 2034.9 Z"/><path d="M 2373.9 2132.4 L 2382.5 2128.9 L 2390.2 2123.7 L 2396.8 2117.1 L 2402 2109.4 L 2405.5 2100.8 L 2407.4 2091.7 L 2407.4 2082.4 L 2405.5 2073.2 L 2402 2064.6 L 2396.8 2056.9 L 2390.2 2050.3 L 2382.5 2045.1 L 2373.9 2041.6 L 2364.8 2039.8 L 2355.5 2039.8 L 2346.3 2041.6 L 2337.7 2045.1 L 2330 2050.3 L 2323.4 2056.9 L 2318.2 2064.6 L 2314.7 2073.2 L 2312.9 2082.4 L 2312.9 2091.7 L 2314.7 2100.8 L 2318.2 2109.4 L 2323.4 2117.1 L 2330 2123.7 L 2337.7 2128.9 L 2346.3 2132.4 L 2355.5 2134.3 L 2364.8 2134.3 L 2373.9 2132.4 L 2373.9 2132.4 Z"/><path d="M 1112.1 2132.4 L 1120.7 2128.9 L 1128.4 2123.7 L 1135 2117.1 L 1140.2 2109.4 L 1143.7 2100.8 L 1145.5 2091.7 L 1145.5 2082.4 L 1143.7 2073.2 L 1140.2 2064.6 L 1135 2056.9 L 1128.4 2050.3 L 1120.7 2045.1 L 1112.1 2041.6 L 1103 2039.8 L 1093.6 2039.8 L 1084.5 2041.6 L 1075.9 2045.1 L 1068.2 2050.3 L 1061.6 2056.9 L 1056.4 2064.6 L 1052.9 2073.2 L 1051.1 2082.4 L 1051.1 2091.7 L 1052.9 2100.8 L 1056.4 2109.4 L 1061.6 2117.1 L 1068.2 2123.7 L 1075.9 2128.9 L 1084.5 2132.4 L 1093.6 2134.3 L 1103 2134.3 L 1112.1 2132.4 L 1112.1 2132.4 Z"/><path d="M 714 2149.3 L 717 2149 L 722.2 2147.5 L 724.8 2146.7 L 732 2142.8 L 738.3 2137.7 L 743.5 2131.4 L 747.3 2124.2 L 747.3 2124.2 L 749.7 2116.4 L 750.5 2108.3 L 749.7 2100.2 L 748.1 2095.1 L 747.3 2092.4 L 743.5 2085.2 L 738.3 2078.9 L 732 2073.8 L 724.8 2069.9 L 722.2 2069.1 L 717 2067.6 L 714 2067.3 L 711 2067 L 706.9 2067 L 703.9 2067.3 L 700.8 2067.6 L 695.6 2069.1 L 693 2069.9 L 685.9 2073.8 L 679.6 2078.9 L 674.4 2085.2 L 670.6 2092.4 L 669.7 2095.1 L 668.2 2100.2 L 667.4 2108.3 L 668.2 2116.4 L 670.6 2124.2 L 670.6 2124.2 L 674.4 2131.4 L 679.6 2137.7 L 685.9 2142.8 L 693 2146.7 L 695.6 2147.5 L 700.8 2149 L 703.9 2149.3 L 706.9 2149.6 L 711 2149.6 L 714 2149.3 L 714 2149.3 Z"/><path d="M 2597.3 2167.9 L 2597.3 2167.9 L 2597.3 2167.9 L 2604.1 2165.1 L 2604.1 2165.1 L 2610.4 2160.9 L 2615.6 2155.6 L 2617.7 2152.5 L 2619.8 2149.4 L 2619.9 2149 L 2622.6 2142.5 L 2624.1 2135.2 L 2624.1 2127.8 L 2622.6 2120.4 L 2622.6 2120.4 L 2619.8 2113.6 L 2619.8 2113.6 L 2615.6 2107.4 L 2610.4 2102.1 L 2608.4 2100.8 L 2604.1 2097.9 L 2598.8 2095.7 L 2597.3 2095.1 L 2589.9 2093.6 L 2582.5 2093.6 L 2575.2 2095.1 L 2573.6 2095.7 L 2568.3 2097.9 L 2564 2100.8 L 2562.1 2102.1 L 2556.8 2107.4 L 2552.6 2113.6 L 2552.6 2113.6 L 2549.8 2120.4 L 2549.8 2120.4 L 2548.3 2127.8 L 2548.3 2135.2 L 2549.8 2142.5 L 2552.5 2149 L 2552.6 2149.4 L 2554.7 2152.5 L 2556.8 2155.6 L 2562.1 2160.9 L 2568.3 2165.1 L 2568.3 2165.1 L 2575.2 2167.9 L 2575.2 2167.9 L 2575.2 2167.9 L 2582.5 2169.4 L 2589.9 2169.4 L 2597.3 2167.9 L 2597.3 2167.9 Z"/><path d="M 764 2235.9 L 767 2235.6 L 772.2 2234.1 L 774.8 2233.3 L 782 2229.4 L 788.3 2224.3 L 793.5 2218 L 797.3 2210.8 L 797.8 2209 L 799.7 2203 L 800.5 2194.9 L 799.7 2186.8 L 798.7 2183.7 L 797.3 2179 L 793.5 2171.8 L 788.3 2165.5 L 782 2160.4 L 774.8 2156.5 L 772.2 2155.7 L 767 2154.2 L 764 2153.9 L 761 2153.6 L 756.9 2153.6 L 753.9 2153.9 L 750.8 2154.2 L 745.6 2155.7 L 743 2156.5 L 735.9 2160.4 L 729.6 2165.5 L 724.4 2171.8 L 720.6 2179 L 719.1 2183.7 L 718.2 2186.8 L 717.4 2194.9 L 718.2 2203 L 720 2209 L 720.6 2210.8 L 724.4 2218 L 729.6 2224.3 L 735.9 2229.4 L 743 2233.3 L 745.6 2234.1 L 750.8 2235.6 L 753.9 2235.9 L 756.9 2236.2 L 761 2236.2 L 764 2235.9 L 764 2235.9 Z"/><path d="M 2750.7 2256.5 L 2750.7 2256.5 L 2750.7 2256.5 L 2757.6 2253.6 L 2757.6 2253.6 L 2763.8 2249.5 L 2769.1 2244.2 L 2769.1 2244.2 L 2773.2 2238 L 2773.9 2236.2 L 2776.1 2231.1 L 2777.5 2223.8 L 2777.5 2216.3 L 2776.1 2209 L 2776.1 2209 L 2773.2 2202.1 L 2773.2 2202.1 L 2769.1 2195.9 L 2763.8 2190.7 L 2760.7 2188.6 L 2757.6 2186.5 L 2752.2 2184.3 L 2750.7 2183.7 L 2743.4 2182.2 L 2735.9 2182.2 L 2728.6 2183.7 L 2727 2184.3 L 2721.7 2186.5 L 2718.6 2188.6 L 2715.5 2190.7 L 2710.2 2195.9 L 2706.1 2202.1 L 2706.1 2202.1 L 2703.2 2209 L 2703.2 2209 L 2701.8 2216.3 L 2701.8 2223.8 L 2703.2 2231.1 L 2705.3 2236.2 L 2706.1 2238 L 2710.2 2244.2 L 2710.2 2244.2 L 2715.5 2249.5 L 2721.7 2253.6 L 2721.7 2253.6 L 2728.6 2256.5 L 2728.6 2256.5 L 2728.6 2256.5 L 2735.9 2258 L 2743.4 2258 L 2750.7 2256.5 L 2750.7 2256.5 Z"/><path d="M 865.4 2296.6 L 824.1 2225 L 752.5 2266.4 L 793.8 2338 L 865.4 2296.6 L 865.4 2296.6 Z"/><path d="M 1123 2360.8 L 1096 2314.1 L 1060.2 2334.7 L 1087.2 2381.5 L 1123 2360.8 L 1123 2360.8 Z"/><path d="M 2421.4 2350.2 L 2363.4 2316.8 L 2335.9 2364.5 L 2393.8 2398 L 2421.4 2350.2 L 2421.4 2350.2 Z"/><path d="M 1033.2 2422.4 L 1005.6 2374.7 L 947.7 2408.1 L 975.2 2455.9 L 1033.2 2422.4 L 1033.2 2422.4 Z"/><path d="M 2378.1 2425.3 L 2320.1 2391.8 L 2292.5 2439.5 L 2350.5 2473 L 2378.1 2425.3 L 2378.1 2425.3 Z"/><path d="M 1191.5 2479.4 L 1164.5 2432.7 L 1128.7 2453.4 L 1155.7 2500.1 L 1191.5 2479.4 L 1191.5 2479.4 Z"/><path d="M 1076.5 2497.4 L 1048.9 2449.7 L 991 2483.1 L 1018.5 2530.9 L 1076.5 2497.4 L 1076.5 2497.4 Z"/><path d="M 1534.5 2703.6 L 1537.5 2703.3 L 1542.7 2701.8 L 1545.3 2701 L 1552.5 2697.1 L 1558.8 2692 L 1563.9 2685.7 L 1567.8 2678.5 L 1567.8 2678.5 L 1570.1 2670.7 L 1570.9 2662.6 L 1570.1 2654.5 L 1568.6 2649.3 L 1567.8 2646.7 L 1563.9 2639.5 L 1558.8 2633.2 L 1552.5 2628.1 L 1545.3 2624.2 L 1542.7 2623.4 L 1537.5 2621.9 L 1534.5 2621.6 L 1531.4 2621.3 L 1527.4 2621.3 L 1524.3 2621.6 L 1521.3 2621.9 L 1516.1 2623.4 L 1513.5 2624.2 L 1506.3 2628.1 L 1500 2633.2 L 1494.9 2639.5 L 1491 2646.7 L 1490.2 2649.3 L 1488.7 2654.5 L 1487.9 2662.6 L 1488.7 2670.7 L 1491 2678.5 L 1491 2678.5 L 1494.9 2685.7 L 1500 2692 L 1506.3 2697.1 L 1513.5 2701 L 1516.1 2701.8 L 1521.3 2703.3 L 1524.3 2703.6 L 1527.4 2703.9 L 1531.4 2703.9 L 1534.5 2703.6 L 1534.5 2703.6 Z"/><path d="M 1634.5 2703.6 L 1637.5 2703.3 L 1642.7 2701.8 L 1645.3 2701 L 1652.5 2697.1 L 1658.8 2692 L 1663.9 2685.7 L 1667.8 2678.5 L 1667.8 2678.5 L 1670.1 2670.7 L 1670.9 2662.6 L 1670.1 2654.5 L 1668.6 2649.3 L 1667.8 2646.7 L 1663.9 2639.5 L 1658.8 2633.2 L 1652.5 2628.1 L 1645.3 2624.2 L 1642.7 2623.4 L 1637.5 2621.9 L 1634.5 2621.6 L 1631.4 2621.3 L 1627.4 2621.3 L 1624.3 2621.6 L 1621.3 2621.9 L 1616.1 2623.4 L 1613.5 2624.2 L 1606.3 2628.1 L 1600 2633.2 L 1594.9 2639.5 L 1591 2646.7 L 1590.2 2649.3 L 1588.7 2654.5 L 1587.9 2662.6 L 1588.7 2670.7 L 1591 2678.5 L 1591 2678.5 L 1594.9 2685.7 L 1600 2692 L 1606.3 2697.1 L 1613.5 2701 L 1616.1 2701.8 L 1621.3 2703.3 L 1624.3 2703.6 L 1627.4 2703.9 L 1631.4 2703.9 L 1634.5 2703.6 L 1634.5 2703.6 Z"/><path d="M 1734.5 2703.6 L 1737.5 2703.3 L 1742.7 2701.8 L 1745.3 2701 L 1752.5 2697.1 L 1758.8 2692 L 1763.9 2685.7 L 1767.8 2678.5 L 1767.8 2678.5 L 1770.1 2670.7 L 1770.9 2662.6 L 1770.1 2654.5 L 1768.6 2649.3 L 1767.8 2646.7 L 1763.9 2639.5 L 1758.8 2633.2 L 1752.5 2628.1 L 1745.3 2624.2 L 1742.7 2623.4 L 1737.5 2621.9 L 1734.5 2621.6 L 1731.4 2621.3 L 1727.4 2621.3 L 1724.3 2621.6 L 1721.3 2621.9 L 1716.1 2623.4 L 1713.5 2624.2 L 1706.3 2628.1 L 1700 2633.2 L 1694.9 2639.5 L 1691 2646.7 L 1690.2 2649.3 L 1688.7 2654.5 L 1687.9 2662.6 L 1688.7 2670.7 L 1691 2678.5 L 1691 2678.5 L 1694.9 2685.7 L 1700 2692 L 1706.3 2697.1 L 1713.5 2701 L 1716.1 2701.8 L 1721.3 2703.3 L 1724.3 2703.6 L 1727.4 2703.9 L 1731.4 2703.9 L 1734.5 2703.6 L 1734.5 2703.6 Z"/><path d="M 1834.5 2703.6 L 1837.5 2703.3 L 1842.7 2701.8 L 1845.3 2701 L 1852.5 2697.1 L 1858.8 2692 L 1863.9 2685.7 L 1867.8 2678.5 L 1867.8 2678.5 L 1870.1 2670.7 L 1870.9 2662.6 L 1870.1 2654.5 L 1868.6 2649.3 L 1867.8 2646.7 L 1863.9 2639.5 L 1858.8 2633.2 L 1852.5 2628.1 L 1845.3 2624.2 L 1842.7 2623.4 L 1837.5 2621.9 L 1834.5 2621.6 L 1831.4 2621.3 L 1827.4 2621.3 L 1824.3 2621.6 L 1821.3 2621.9 L 1816.1 2623.4 L 1813.5 2624.2 L 1806.3 2628.1 L 1800 2633.2 L 1794.9 2639.5 L 1791 2646.7 L 1790.2 2649.3 L 1788.7 2654.5 L 1787.9 2662.6 L 1788.7 2670.7 L 1791 2678.5 L 1791 2678.5 L 1794.9 2685.7 L 1800 2692 L 1806.3 2697.1 L 1813.5 2701 L 1816.1 2701.8 L 1821.3 2703.3 L 1824.3 2703.6 L 1827.4 2703.9 L 1831.4 2703.9 L 1834.5 2703.6 L 1834.5 2703.6 Z"/><path d="M 1934.5 2703.6 L 1937.5 2703.3 L 1942.7 2701.8 L 1945.3 2701 L 1952.5 2697.1 L 1958.8 2692 L 1963.9 2685.7 L 1967.8 2678.5 L 1967.8 2678.5 L 1970.1 2670.7 L 1970.9 2662.6 L 1970.1 2654.5 L 1968.6 2649.3 L 1967.8 2646.7 L 1963.9 2639.5 L 1958.8 2633.2 L 1952.5 2628.1 L 1945.3 2624.2 L 1942.7 2623.4 L 1937.5 2621.9 L 1934.5 2621.6 L 1931.4 2621.3 L 1927.4 2621.3 L 1924.3 2621.6 L 1921.3 2621.9 L 1916.1 2623.4 L 1913.5 2624.2 L 1906.3 2628.1 L 1900 2633.2 L 1894.9 2639.5 L 1891 2646.7 L 1890.2 2649.3 L 1888.7 2654.5 L 1887.9 2662.6 L 1888.7 2670.7 L 1891 2678.5 L 1891 2678.5 L 1894.9 2685.7 L 1900 2692 L 1906.3 2697.1 L 1913.5 2701 L 1916.1 2701.8 L 1921.3 2703.3 L 1924.3 2703.6 L 1927.4 2703.9 L 1931.4 2703.9 L 1934.5 2703.6 L 1934.5 2703.6 Z"/><path d="M 1534.5 2803.6 L 1537.5 2803.3 L 1542.7 2801.8 L 1545.3 2801 L 1552.5 2797.1 L 1558.8 2792 L 1563.9 2785.7 L 1567.8 2778.5 L 1567.8 2778.5 L 1570.1 2770.7 L 1570.9 2762.6 L 1570.1 2754.5 L 1568.6 2749.3 L 1567.8 2746.7 L 1563.9 2739.5 L 1558.8 2733.2 L 1552.5 2728.1 L 1545.3 2724.2 L 1542.7 2723.4 L 1537.5 2721.9 L 1534.5 2721.6 L 1531.4 2721.3 L 1527.4 2721.3 L 1524.3 2721.6 L 1521.3 2721.9 L 1516.1 2723.4 L 1513.5 2724.2 L 1506.3 2728.1 L 1500 2733.2 L 1494.9 2739.5 L 1491 2746.7 L 1490.2 2749.3 L 1488.7 2754.5 L 1487.9 2762.6 L 1488.7 2770.7 L 1491 2778.5 L 1491 2778.5 L 1494.9 2785.7 L 1500 2792 L 1506.3 2797.1 L 1513.5 2801 L 1516.1 2801.8 L 1521.3 2803.3 L 1524.3 2803.6 L 1527.4 2803.9 L 1531.4 2803.9 L 1534.5 2803.6 L 1534.5 2803.6 Z"/><path d="M 1634.5 2803.6 L 1637.5 2803.3 L 1642.7 2801.8 L 1645.3 2801 L 1652.5 2797.1 L 1658.8 2792 L 1663.9 2785.7 L 1667.8 2778.5 L 1667.8 2778.5 L 1670.1 2770.7 L 1670.9 2762.6 L 1670.1 2754.5 L 1668.6 2749.3 L 1667.8 2746.7 L 1663.9 2739.5 L 1658.8 2733.2 L 1652.5 2728.1 L 1645.3 2724.2 L 1642.7 2723.4 L 1637.5 2721.9 L 1634.5 2721.6 L 1631.4 2721.3 L 1627.4 2721.3 L 1624.3 2721.6 L 1621.3 2721.9 L 1616.1 2723.4 L 1613.5 2724.2 L 1606.3 2728.1 L 1600 2733.2 L 1594.9 2739.5 L 1591 2746.7 L 1590.2 2749.3 L 1588.7 2754.5 L 1587.9 2762.6 L 1588.7 2770.7 L 1591 2778.5 L 1591 2778.5 L 1594.9 2785.7 L 1600 2792 L 1606.3 2797.1 L 1613.5 2801 L 1616.1 2801.8 L 1621.3 2803.3 L 1624.3 2803.6 L 1627.4 2803.9 L 1631.4 2803.9 L 1634.5 2803.6 L 1634.5 2803.6 Z"/><path d="M 1734.5 2803.6 L 1737.5 2803.3 L 1742.7 2801.8 L 1745.3 2801 L 1752.5 2797.1 L 1758.8 2792 L 1763.9 2785.7 L 1767.8 2778.5 L 1767.8 2778.5 L 1770.1 2770.7 L 1770.9 2762.6 L 1770.1 2754.5 L 1768.6 2749.3 L 1767.8 2746.7 L 1763.9 2739.5 L 1758.8 2733.2 L 1752.5 2728.1 L 1745.3 2724.2 L 1742.7 2723.4 L 1737.5 2721.9 L 1734.5 2721.6 L 1731.4 2721.3 L 1727.4 2721.3 L 1724.3 2721.6 L 1721.3 2721.9 L 1716.1 2723.4 L 1713.5 2724.2 L 1706.3 2728.1 L 1700 2733.2 L 1694.9 2739.5 L 1691 2746.7 L 1690.2 2749.3 L 1688.7 2754.5 L 1687.9 2762.6 L 1688.7 2770.7 L 1691 2778.5 L 1691 2778.5 L 1694.9 2785.7 L 1700 2792 L 1706.3 2797.1 L 1713.5 2801 L 1716.1 2801.8 L 1721.3 2803.3 L 1724.3 2803.6 L 1727.4 2803.9 L 1731.4 2803.9 L 1734.5 2803.6 L 1734.5 2803.6 Z"/><path d="M 1834.5 2803.6 L 1837.5 2803.3 L 1842.7 2801.8 L 1845.3 2801 L 1852.5 2797.1 L 1858.8 2792 L 1863.9 2785.7 L 1867.8 2778.5 L 1867.8 2778.5 L 1870.1 2770.7 L 1870.9 2762.6 L 1870.1 2754.5 L 1868.6 2749.3 L 1867.8 2746.7 L 1863.9 2739.5 L 1858.8 2733.2 L 1852.5 2728.1 L 1845.3 2724.2 L 1842.7 2723.4 L 1837.5 2721.9 L 1834.5 2721.6 L 1831.4 2721.3 L 1827.4 2721.3 L 1824.3 2721.6 L 1821.3 2721.9 L 1816.1 2723.4 L 1813.5 2724.2 L 1806.3 2728.1 L 1800 2733.2 L 1794.9 2739.5 L 1791 2746.7 L 1790.2 2749.3 L 1788.7 2754.5 L 1787.9 2762.6 L 1788.7 2770.7 L 1791 2778.5 L 1791 2778.5 L 1794.9 2785.7 L 1800 2792 L 1806.3 2797.1 L 1813.5 2801 L 1816.1 2801.8 L 1821.3 2803.3 L 1824.3 2803.6 L 1827.4 2803.9 L 1831.4 2803.9 L 1834.5 2803.6 L 1834.5 2803.6 Z"/><path d="M 1970.7 2721.3 L 1888.1 2721.3 L 1888.1 2803.9 L 1970.7 2803.9 L 1970.7 2721.3 L 1970.7 2721.3 Z"/></g><mask id="pcb_bottom-sm_mask" color="#000"><rect x="1.9" y="2" width="3455" height="2992.1" fill="#fff"/><use xlink:href="#pcb_bottom-sm"/></mask><mask id="pcb_bottom-cu_finish-mask" color="#fff"><use xlink:href="#pcb_bottom-cu"/></mask></defs><g mask="url(#pcb_bottom-sm_mask)"><rect x="1.9" y="2" width="3455" height="2992.1" fill="currentColor" class="pcb_board-sm"/><g id="pcb_bottom-ss" class="pcb_board-ss" fill="currentColor" stroke="currentColor"><path stroke-width="7.9" fill="none" d="M 1948.6 548.6 L 1943 546.8 M 1943 546.8 L 1933.6 546.8 M 1933.6 546.8 L 1929.8 548.6 M 1929.8 548.6 L 1928 550.5 M 1928 550.5 L 1926.1 554.3 M 1926.1 554.3 L 1926.1 558 M 1926.1 558 L 1928 561.8 M 1928 561.8 L 1929.8 563.6 M 1929.8 563.6 L 1933.6 565.5 M 1933.6 565.5 L 1941.1 567.4 M 1941.1 567.4 L 1944.8 569.3 M 1944.8 569.3 L 1946.7 571.1 M 1946.7 571.1 L 1948.6 574.9 M 1948.6 574.9 L 1948.6 578.6 M 1948.6 578.6 L 1946.7 582.4 M 1946.7 582.4 L 1944.8 584.3 M 1944.8 584.3 L 1941.1 586.1 M 1941.1 586.1 L 1931.7 586.1 M 1931.7 586.1 L 1926.1 584.3 M 1909.2 546.8 L 1909.2 586.1 M 1909.2 586.1 L 1896.1 558 M 1896.1 558 L 1883 586.1 M 1883 586.1 L 1883 546.8 M 1851.1 567.4 L 1845.5 565.5 M 1845.5 565.5 L 1843.6 563.6 M 1843.6 563.6 L 1841.7 559.9 M 1841.7 559.9 L 1841.7 554.3 M 1841.7 554.3 L 1843.6 550.5 M 1843.6 550.5 L 1845.5 548.6 M 1845.5 548.6 L 1849.2 546.8 M 1849.2 546.8 L 1864.2 546.8 M 1864.2 546.8 L 1864.2 586.1 M 1864.2 586.1 L 1851.1 586.1 M 1851.1 586.1 L 1847.3 584.3 M 1847.3 584.3 L 1845.5 582.4 M 1845.5 582.4 L 1843.6 578.6 M 1843.6 578.6 L 1843.6 574.9 M 1843.6 574.9 L 1845.5 571.1 M 1845.5 571.1 L 1847.3 569.3 M 1847.3 569.3 L 1851.1 567.4 M 1851.1 567.4 L 1864.2 567.4 M 1809.8 548.6 L 1813.6 546.8 M 1813.6 546.8 L 1821.1 546.8 M 1821.1 546.8 L 1824.8 548.6 M 1824.8 548.6 L 1826.7 552.4 M 1826.7 552.4 L 1826.7 567.4 M 1826.7 567.4 L 1824.8 571.1 M 1824.8 571.1 L 1821.1 573 M 1821.1 573 L 1813.6 573 M 1813.6 573 L 1809.8 571.1 M 1809.8 571.1 L 1808 567.4 M 1808 567.4 L 1808 563.6 M 1808 563.6 L 1826.7 559.9 M 1776.1 548.6 L 1779.9 546.8 M 1779.9 546.8 L 1787.4 546.8 M 1787.4 546.8 L 1791.1 548.6 M 1791.1 548.6 L 1793 552.4 M 1793 552.4 L 1793 567.4 M 1793 567.4 L 1791.1 571.1 M 1791.1 571.1 L 1787.4 573 M 1787.4 573 L 1779.9 573 M 1779.9 573 L 1776.1 571.1 M 1776.1 571.1 L 1774.2 567.4 M 1774.2 567.4 L 1774.2 563.6 M 1774.2 563.6 L 1793 559.9 M 1757.4 546.8 L 1757.4 586.1 M 1757.4 567.4 L 1734.9 567.4 M 1734.9 546.8 L 1734.9 586.1 M 1716.1 546.8 L 1716.1 573 M 1716.1 586.1 L 1718 584.3 M 1718 584.3 L 1716.1 582.4 M 1716.1 582.4 L 1714.2 584.3 M 1714.2 584.3 L 1716.1 586.1 M 1716.1 586.1 L 1716.1 582.4 M 1701.1 573 L 1691.7 546.8 M 1691.7 546.8 L 1682.4 573 M 1652.4 548.6 L 1656.1 546.8 M 1656.1 546.8 L 1663.6 546.8 M 1663.6 546.8 L 1667.4 548.6 M 1667.4 548.6 L 1669.2 552.4 M 1669.2 552.4 L 1669.2 567.4 M 1669.2 567.4 L 1667.4 571.1 M 1667.4 571.1 L 1663.6 573 M 1663.6 573 L 1656.1 573 M 1656.1 573 L 1652.4 571.1 M 1652.4 571.1 L 1650.5 567.4 M 1650.5 567.4 L 1650.5 563.6 M 1650.5 563.6 L 1669.2 559.9 M 1583 546.8 L 1605.5 546.8 M 1594.2 546.8 L 1594.2 586.1 M 1594.2 586.1 L 1598 580.5 M 1598 580.5 L 1601.7 576.8 M 1601.7 576.8 L 1605.5 574.9 M 1566.1 550.5 L 1564.3 548.6 M 1564.3 548.6 L 1566.1 546.8 M 1566.1 546.8 L 1568 548.6 M 1568 548.6 L 1566.1 550.5 M 1566.1 550.5 L 1566.1 546.8 M 1549.3 582.4 L 1547.4 584.3 M 1547.4 584.3 L 1543.6 586.1 M 1543.6 586.1 L 1534.3 586.1 M 1534.3 586.1 L 1530.5 584.3 M 1530.5 584.3 L 1528.6 582.4 M 1528.6 582.4 L 1526.8 578.6 M 1526.8 578.6 L 1526.8 574.9 M 1526.8 574.9 L 1528.6 569.3 M 1528.6 569.3 L 1551.1 546.8 M 1551.1 546.8 L 1526.8 546.8"/><path stroke-width="4.7" fill="none" d="M 509.7 1831.9 L 509.7 1936.6 M 812.1 1831.9 L 509.7 1831.9 M 812.1 1936.6 L 509.7 1936.6 M 812.1 1831.9 L 812.1 1936.6 M 862.1 1831.9 L 914.4 1831.9 M 914.4 1831.9 L 914.4 1884.3 M 2315.1 2398 L 2338.8 2357.1 M 2398.8 2391.7 L 2375.2 2432.7 M 1141.8 2513.4 L 1210 2474 M 1210 2474 L 1123.5 2324.3 M 1141.8 2513.4 L 1055.3 2363.7 M 1030.3 2415 L 1053.9 2455.9 M 993.9 2490.5 L 970.3 2449.6"/><path stroke-width="5.9" fill="none" d="M 932.3 1897.4 L 960.4 1897.4 M 960.4 1897.4 L 966 1899.3 M 966 1899.3 L 969.7 1903 M 969.7 1903 L 971.6 1908.6 M 971.6 1908.6 L 971.6 1912.4 M 932.3 1882.4 L 932.3 1858 M 932.3 1858 L 947.2 1871.1 M 947.2 1871.1 L 947.2 1865.5 M 947.2 1865.5 L 949.1 1861.8 M 949.1 1861.8 L 951 1859.9 M 951 1859.9 L 954.7 1858 M 954.7 1858 L 964.1 1858 M 964.1 1858 L 967.9 1859.9 M 967.9 1859.9 L 969.7 1861.8 M 969.7 1861.8 L 971.6 1865.5 M 971.6 1865.5 L 971.6 1876.8 M 971.6 1876.8 L 969.7 1880.5 M 969.7 1880.5 L 967.9 1882.4 M 2317.2 2474.9 L 2319.2 2497.7 M 2336.7 2486.1 L 2317 2520.2 M 2317 2520.2 L 2304 2512.7 M 2304 2512.7 L 2301.7 2509.2 M 2301.7 2509.2 L 2301 2506.7 M 2301 2506.7 L 2301.3 2502.5 M 2301.3 2502.5 L 2304.1 2497.6 M 2304.1 2497.6 L 2307.6 2495.3 M 2307.6 2495.3 L 2310.2 2494.6 M 2310.2 2494.6 L 2314.3 2494.9 M 2314.3 2494.9 L 2327.3 2502.3 M 2284.7 2456.1 L 2304.2 2467.4 M 2294.5 2461.7 L 2274.8 2495.8 M 2274.8 2495.8 L 2280.9 2492.8 M 2280.9 2492.8 L 2286 2491.5 M 2286 2491.5 L 2290.2 2491.7 M 1199.6 2486.2 L 1219.3 2520.3 M 1219.3 2520.3 L 1211.2 2525 M 1211.2 2525 L 1205.4 2526.2 M 1205.4 2526.2 L 1200.2 2524.8 M 1200.2 2524.8 L 1196.7 2522.5 M 1196.7 2522.5 L 1191.4 2516.9 M 1191.4 2516.9 L 1188.6 2512 M 1188.6 2512 L 1186.4 2504.6 M 1186.4 2504.6 L 1186.2 2500.4 M 1186.2 2500.4 L 1187.5 2495.3 M 1187.5 2495.3 L 1191.5 2490.9 M 1191.5 2490.9 L 1199.6 2486.2 M 1147.6 2516.2 L 1167.1 2504.9 M 1157.4 2510.6 L 1177.1 2544.7 M 1177.1 2544.7 L 1177.5 2537.9 M 1177.5 2537.9 L 1178.9 2532.8 M 1178.9 2532.8 L 1181.2 2529.3 M 1064.8 2527 L 1085.5 2536.6 M 1084.2 2515.7 L 1103.9 2549.8 M 1103.9 2549.8 L 1090.9 2557.3 M 1090.9 2557.3 L 1086.8 2557.6 M 1086.8 2557.6 L 1084.2 2556.9 M 1084.2 2556.9 L 1080.7 2554.6 M 1080.7 2554.6 L 1077.9 2549.7 M 1077.9 2549.7 L 1077.6 2545.5 M 1077.6 2545.5 L 1078.3 2542.9 M 1078.3 2542.9 L 1080.6 2539.5 M 1080.6 2539.5 L 1093.6 2532 M 1069.6 2565.3 L 1068.9 2567.9 M 1068.9 2567.9 L 1066.6 2571.4 M 1066.6 2571.4 L 1058.5 2576.1 M 1058.5 2576.1 L 1054.3 2576.3 M 1054.3 2576.3 L 1051.7 2575.6 M 1051.7 2575.6 L 1048.2 2573.3 M 1048.2 2573.3 L 1046.4 2570.1 M 1046.4 2570.1 L 1045.2 2564.3 M 1045.2 2564.3 L 1053.4 2533.5 M 1053.4 2533.5 L 1032.3 2545.7"/></g></g><use class="pcb_board-cf" mask="url(#pcb_bottom-cu_finish-mask)" xlink:href="#pcb_bottom-sm"/></g></g></svg>