<?xml-stylesheet href="https://s3.amazonaws.com/maker.works.boards/css/blackpcb.css" type="text/css"?><svg xmlns="http://www.w3.org/2000/svg" version="1.1" xmlns:xlink="http://www.w3.org/1999/xlink" stroke-width="0" stroke-linecap="round" stroke-linejoin="round" width="3.455in" height="2.9920999999999998in" id="pcb_top" viewBox="1.9 2 3455 2992.1">
<defs>
	<style>
	.pcb_board-fr4 {color:dimgrey;}
	.pcb_board-cu {color: lightgrey;}
	.pcb_board-cf {color: silver;}
	.pcb_board-sm {color: #1A661A;opacity: 0.75;}
	.pcb_board-ss {color: white;}
	.pcb_board-sp {color: silver;}
	.pcb_board-out {color: #1A661A;}
	</style>
<circle cx="0" cy="0" r="8" id="tool-T10-pad-1000"/><circle cx="0" cy="0" r="10" id="tool-T11-pad-1001"/><circle cx="0" cy="0" r="16.5" id="tool-T12-pad-1002"/><circle cx="0" cy="0" r="19.5" id="tool-T13-pad-1003"/><circle cx="0" cy="0" r="19.5" id="tool-T14-pad-1004"/><circle cx="0" cy="0" r="63" id="tool-T15-pad-1005"/><circle cx="0" cy="0" r="157.5" id="tool-D10-pad-1031"/><circle cx="0" cy="0" r="39.35" id="tool-D11-pad-1032"/><circle cx="0" cy="0" r="33.45" id="tool-D12-pad-1033"/><rect x="-33.45" y="-33.45" width="66.9" height="66.9" id="tool-D13-pad-1034"/><rect x="-33.45" y="-33.45" width="66.9" height="66.9" rx="33.45" ry="33.45" id="tool-D14-pad-1035"/><circle cx="0" cy="0" r="30" id="tool-D15-pad-1036"/><circle cx="0" cy="0" r="15.75" id="tool-D18-pad-1039"/><circle cx="0" cy="0" r="47.25" id="tool-D14-pad-1045"/><circle cx="0" cy="0" r="41.35" id="tool-D15-pad-1046"/><rect x="-41.35" y="-41.35" width="82.7" height="82.7" id="tool-D16-pad-1047"/><rect x="-41.35" y="-41.35" width="82.7" height="82.7" rx="41.35" ry="41.35" id="tool-D17-pad-1048"/><circle cx="0" cy="0" r="37.85" id="tool-D18-pad-1049"/><mask id="gerber-mask_1051" color="#000"><rect x="520.75" y="700.75" width="2384.7" height="2116.6" fill="#fff"/><use x="2360.1" y="2087" xlink:href="#tool-D14-pad-1045"/><use x="2521.9" y="1139.4" xlink:href="#tool-D14-pad-1045"/><use x="2375.9" y="748" xlink:href="#tool-D14-pad-1045"/><use x="1082.6" y="748" xlink:href="#tool-D14-pad-1045"/><use x="936.1" y="1139.4" xlink:href="#tool-D14-pad-1045"/><use x="1098.3" y="2087" xlink:href="#tool-D14-pad-1045"/><use x="862.1" y="1884.3" xlink:href="#tool-D15-pad-1046"/><use x="762.1" y="1884.3" xlink:href="#tool-D16-pad-1047"/><use x="662.1" y="1884.3" xlink:href="#tool-D17-pad-1048"/><use x="562.1" y="1884.3" xlink:href="#tool-D17-pad-1048"/><use x="2714.2" y="1909.9" xlink:href="#tool-D18-pad-1049"/><use x="2586.2" y="2131.5" xlink:href="#tool-D18-pad-1049"/><use x="2867.6" y="1998.5" xlink:href="#tool-D18-pad-1049"/><use x="2739.6" y="2220.1" xlink:href="#tool-D18-pad-1049"/><use x="2714.2" y="1909.9" xlink:href="#tool-D18-pad-1049"/><use x="2586.2" y="2131.5" xlink:href="#tool-D18-pad-1049"/><use x="2867.6" y="1998.5" xlink:href="#tool-D18-pad-1049"/><use x="2739.6" y="2220.1" xlink:href="#tool-D18-pad-1049"/><use x="808.9" y="2281.5" xlink:href="#tool-D15-pad-1046"/><path d="M 752.5 2266.4 L 793.8 2338 L 865.4 2296.6 L 824.1 2225 L 752.5 2266.4 L 752.5 2266.4 Z"/><use x="758.9" y="2194.9" xlink:href="#tool-D15-pad-1046"/><path stroke-width="82.7" fill="none" d="M 758.9 2194.9 L 758.9 2194.9"/><use x="708.9" y="2108.3" xlink:href="#tool-D15-pad-1046"/><path stroke-width="82.7" fill="none" d="M 708.9 2108.3 L 708.9 2108.3"/><use x="1929.4" y="2762.6" xlink:href="#tool-D16-pad-1047"/><use x="1929.4" y="2662.6" xlink:href="#tool-D17-pad-1048"/><use x="1829.4" y="2762.6" xlink:href="#tool-D17-pad-1048"/><use x="1829.4" y="2662.6" xlink:href="#tool-D17-pad-1048"/><use x="1729.4" y="2762.6" xlink:href="#tool-D17-pad-1048"/><use x="1729.4" y="2662.6" xlink:href="#tool-D17-pad-1048"/><use x="1629.4" y="2762.6" xlink:href="#tool-D17-pad-1048"/><use x="1629.4" y="2662.6" xlink:href="#tool-D17-pad-1048"/><use x="1529.4" y="2762.6" xlink:href="#tool-D17-pad-1048"/><use x="1529.4" y="2662.6" xlink:href="#tool-D17-pad-1048"/></mask><g id="pcb_top-cu" fill="currentColor" stroke="currentColor"><use x="193.6" y="1498" xlink:href="#tool-D10-pad-1031"/><use x="961.3" y="2827.6" xlink:href="#tool-D10-pad-1031"/><use x="2496.7" y="2828" xlink:href="#tool-D10-pad-1031"/><use x="3264.8" y="1498.4" xlink:href="#tool-D10-pad-1031"/><use x="2496.7" y="168.1" xlink:href="#tool-D10-pad-1031"/><use x="961.7" y="168.1" xlink:href="#tool-D10-pad-1031"/><use x="2360.1" y="2087" xlink:href="#tool-D11-pad-1032"/><use x="2521.9" y="1139.4" xlink:href="#tool-D11-pad-1032"/><use x="2375.9" y="748" xlink:href="#tool-D11-pad-1032"/><use x="1082.6" y="748" xlink:href="#tool-D11-pad-1032"/><use x="936.1" y="1139.4" xlink:href="#tool-D11-pad-1032"/><use x="1098.3" y="2087" xlink:href="#tool-D11-pad-1032"/><use x="862.1" y="1884.3" xlink:href="#tool-D12-pad-1033"/><use x="762.1" y="1884.3" xlink:href="#tool-D13-pad-1034"/><use x="662.1" y="1884.3" xlink:href="#tool-D14-pad-1035"/><use x="562.1" y="1884.3" xlink:href="#tool-D14-pad-1035"/><use x="2714.2" y="1909.9" xlink:href="#tool-D15-pad-1036"/><use x="2586.2" y="2131.5" xlink:href="#tool-D15-pad-1036"/><use x="2867.6" y="1998.5" xlink:href="#tool-D15-pad-1036"/><use x="2739.6" y="2220.1" xlink:href="#tool-D15-pad-1036"/><use x="2714.2" y="1909.9" xlink:href="#tool-D15-pad-1036"/><use x="2586.2" y="2131.5" xlink:href="#tool-D15-pad-1036"/><use x="2867.6" y="1998.5" xlink:href="#tool-D15-pad-1036"/><use x="2739.6" y="2220.1" xlink:href="#tool-D15-pad-1036"/><use x="808.9" y="2281.5" xlink:href="#tool-D12-pad-1033"/><path d="M 763.2 2269.2 L 796.7 2327.2 L 854.6 2293.7 L 821.2 2235.8 L 763.2 2269.2 L 763.2 2269.2 Z"/><use x="758.9" y="2194.9" xlink:href="#tool-D12-pad-1033"/><path stroke-width="66.9" fill="none" d="M 758.9 2194.9 L 758.9 2194.9"/><use x="708.9" y="2108.3" xlink:href="#tool-D12-pad-1033"/><path stroke-width="66.9" fill="none" d="M 708.9 2108.3 L 708.9 2108.3"/><use x="1929.4" y="2762.6" xlink:href="#tool-D13-pad-1034"/><use x="1929.4" y="2662.6" xlink:href="#tool-D14-pad-1035"/><use x="1829.4" y="2762.6" xlink:href="#tool-D14-pad-1035"/><use x="1829.4" y="2662.6" xlink:href="#tool-D14-pad-1035"/><use x="1729.4" y="2762.6" xlink:href="#tool-D14-pad-1035"/><use x="1729.4" y="2662.6" xlink:href="#tool-D14-pad-1035"/><use x="1629.4" y="2762.6" xlink:href="#tool-D14-pad-1035"/><use x="1629.4" y="2662.6" xlink:href="#tool-D14-pad-1035"/><use x="1529.4" y="2762.6" xlink:href="#tool-D14-pad-1035"/><use x="1529.4" y="2662.6" xlink:href="#tool-D14-pad-1035"/><use x="1531.4" y="2870.1" xlink:href="#tool-D18-pad-1039"/><path stroke-width="15.7" fill="none" d="M 808.9 2281.5 L 1236.3 2708.9 M 1236.3 2708.9 L 1242 2714.6 M 1874.8 2713.4 L 1240.8 2713.4 M 1240.8 2713.4 L 1236.3 2708.9 M 1878.6 2713.4 L 1929.4 2662.6 M 1874.8 2713.4 L 1878.6 2713.4 M 1782.1 2662.6 L 1729.4 2662.6 M 1829.4 2662.6 L 1782.1 2662.6 M 1682.1 2662.6 L 1529.4 2662.6 M 1729.4 2662.6 L 1682.1 2662.6 M 1838.9 2598.4 L 1829.4 2607.9 M 2739.6 2220.1 L 2739.6 2262.5 M 2403.7 2598.4 L 1838.9 2598.4 M 1829.4 2615.3 L 1829.4 2662.6 M 1829.4 2607.9 L 1829.4 2615.3 M 2739.6 2262.5 L 2403.7 2598.4 M 1574.7 2913.4 L 1531.4 2870.1 M 1821.9 2913.4 L 1574.7 2913.4 M 1929.4 2805.9 L 1821.9 2913.4 M 1929.4 2762.6 L 1929.4 2805.9 M 2298.5 2762.6 L 1929.4 2762.6 M 2935.3 2125.7 L 2298.5 2762.6 M 2517.6 748 L 2935.3 1165.7 M 2935.3 1165.7 L 2935.3 2125.7 M 2375.9 748 L 2517.6 748 M 1595.9 2796.1 L 1629.4 2762.6 M 1210.9 2826.8 L 1565.2 2826.8 M 1565.2 2826.8 L 1595.9 2796.1 M 424.3 2040.2 L 1210.9 2826.8 M 424.3 1172 L 424.3 2040.2 M 848.3 748 L 424.3 1172 M 1082.6 748 L 848.3 748 M 1137.7 2126.4 L 1098.3 2087 M 1479 2467.7 L 1137.7 2126.4 M 2250 2467.7 L 1479 2467.7 M 2586.2 2131.5 L 2250 2467.7 M 708.9 2144.9 L 758.9 2194.9 M 708.9 2108.3 L 708.9 2144.9"/></g><mask id="pcb_top_mech-mask" fill="#fff" stroke="#fff" fill-rule="evenodd"><path stroke-width="0" d="M 865.7 2 L 1.9 1498 L 865.7 2994.1 L 2593.2 2994.1 L 3456.9 1498 L 2593.2 2 Z M 1896 324 A 166.6 166.6 0 0 0 1562.8 324 A 166.6 166.6 0 0 0 1896 324 M 1048.3 1576.8 L 1048.3 1324.8 A 681.1 681.1 0 1 1 2410.5 1324.8 L 2410.5 1576.8 A 681.1 681.1 0 1 1 1048.3 1576.8"/><g id="pcb_top-drl" fill="#000" stroke="#000"><use x="1531.4" y="2870.1" xlink:href="#tool-T10-pad-1000"/><use x="2375.9" y="748" xlink:href="#tool-T11-pad-1001"/><use x="2521.9" y="1139.4" xlink:href="#tool-T11-pad-1001"/><use x="1098.3" y="2087" xlink:href="#tool-T11-pad-1001"/><use x="2360.1" y="2087" xlink:href="#tool-T11-pad-1001"/><use x="936.1" y="1139.4" xlink:href="#tool-T11-pad-1001"/><use x="1082.6" y="748" xlink:href="#tool-T11-pad-1001"/><use x="562.1" y="1884.3" xlink:href="#tool-T12-pad-1002"/><use x="662.1" y="1884.3" xlink:href="#tool-T12-pad-1002"/><use x="762.1" y="1884.3" xlink:href="#tool-T12-pad-1002"/><use x="862.1" y="1884.3" xlink:href="#tool-T12-pad-1002"/><use x="2586.2" y="2131.5" xlink:href="#tool-T13-pad-1003"/><use x="2714.2" y="1909.9" xlink:href="#tool-T13-pad-1003"/><use x="2739.6" y="2220.1" xlink:href="#tool-T13-pad-1003"/><use x="2867.6" y="1998.5" xlink:href="#tool-T13-pad-1003"/><use x="2586.2" y="2131.5" xlink:href="#tool-T13-pad-1003"/><use x="2714.2" y="1909.9" xlink:href="#tool-T13-pad-1003"/><use x="2739.6" y="2220.1" xlink:href="#tool-T13-pad-1003"/><use x="2867.6" y="1998.5" xlink:href="#tool-T13-pad-1003"/><use x="1529.4" y="2762.6" xlink:href="#tool-T14-pad-1004"/><use x="1529.4" y="2662.6" xlink:href="#tool-T14-pad-1004"/><use x="1629.4" y="2762.6" xlink:href="#tool-T14-pad-1004"/><use x="1629.4" y="2662.6" xlink:href="#tool-T14-pad-1004"/><use x="1729.4" y="2762.6" xlink:href="#tool-T14-pad-1004"/><use x="1729.4" y="2662.6" xlink:href="#tool-T14-pad-1004"/><use x="1829.4" y="2762.6" xlink:href="#tool-T14-pad-1004"/><use x="1829.4" y="2662.6" xlink:href="#tool-T14-pad-1004"/><use x="1929.4" y="2762.6" xlink:href="#tool-T14-pad-1004"/><use x="1929.4" y="2662.6" xlink:href="#tool-T14-pad-1004"/><use x="708.9" y="2108.3" xlink:href="#tool-T14-pad-1004"/><use x="758.9" y="2194.9" xlink:href="#tool-T14-pad-1004"/><use x="808.9" y="2281.5" xlink:href="#tool-T14-pad-1004"/><use x="2496.7" y="168.1" xlink:href="#tool-T15-pad-1005"/><use x="3264.8" y="1498.4" xlink:href="#tool-T15-pad-1005"/><use x="2496.7" y="2828" xlink:href="#tool-T15-pad-1005"/><use x="961.3" y="2827.6" xlink:href="#tool-T15-pad-1005"/><use x="193.6" y="1498" xlink:href="#tool-T15-pad-1005"/><use x="961.7" y="168.1" xlink:href="#tool-T15-pad-1005"/></g></mask></defs><g mask="url(#pcb_top_mech-mask)" transform="translate(0,2996.1) scale(1,-1)"><rect x="1.9" y="2" width="3455" height="2992.1" fill="currentColor" class="pcb_board-fr4"/><use class="pcb_board-cu" xlink:href="#pcb_top-cu"/><g><defs><g id="pcb_top-sm" fill="currentColor" stroke="currentColor"><path d="M 2389.6 793.5 L 2398.2 789.9 L 2406 784.7 L 2412.6 778.1 L 2417.7 770.4 L 2421.3 761.8 L 2423.1 752.7 L 2423.1 743.4 L 2421.3 734.3 L 2417.7 725.7 L 2412.6 717.9 L 2406 711.3 L 2398.2 706.2 L 2389.6 702.6 L 2380.5 700.8 L 2371.2 700.8 L 2362.1 702.6 L 2353.5 706.2 L 2345.7 711.3 L 2339.2 717.9 L 2334 725.7 L 2330.4 734.3 L 2328.6 743.4 L 2328.6 752.7 L 2330.4 761.8 L 2334 770.4 L 2339.2 778.1 L 2345.7 784.7 L 2353.5 789.9 L 2362.1 793.5 L 2371.2 795.3 L 2380.5 795.3 L 2389.6 793.5 L 2389.6 793.5 Z"/><path d="M 1096.3 793.5 L 1104.9 789.9 L 1112.7 784.7 L 1119.2 778.1 L 1124.4 770.4 L 1128 761.8 L 1129.8 752.7 L 1129.8 743.4 L 1128 734.3 L 1124.4 725.7 L 1119.2 717.9 L 1112.7 711.3 L 1104.9 706.2 L 1096.3 702.6 L 1087.2 700.8 L 1077.9 700.8 L 1068.8 702.6 L 1060.2 706.2 L 1052.4 711.3 L 1045.9 717.9 L 1040.7 725.7 L 1037.1 734.3 L 1035.3 743.4 L 1035.3 752.7 L 1037.1 761.8 L 1040.7 770.4 L 1045.9 778.1 L 1052.4 784.7 L 1060.2 789.9 L 1068.8 793.5 L 1077.9 795.3 L 1087.2 795.3 L 1096.3 793.5 L 1096.3 793.5 Z"/><path d="M 949.9 1184.8 L 958.5 1181.2 L 966.2 1176.1 L 972.8 1169.5 L 978 1161.7 L 981.5 1153.2 L 983.3 1144 L 983.3 1134.7 L 981.5 1125.6 L 978 1117 L 972.8 1109.3 L 966.2 1102.7 L 958.5 1097.5 L 949.9 1093.9 L 940.7 1092.1 L 931.4 1092.1 L 922.3 1093.9 L 913.7 1097.5 L 906 1102.7 L 899.4 1109.3 L 894.2 1117 L 890.7 1125.6 L 888.9 1134.7 L 888.9 1144 L 890.7 1153.2 L 894.2 1161.7 L 899.4 1169.5 L 906 1176.1 L 913.7 1181.2 L 922.3 1184.8 L 931.4 1186.6 L 940.7 1186.6 L 949.9 1184.8 L 949.9 1184.8 Z"/><path d="M 2535.7 1184.8 L 2544.3 1181.2 L 2552 1176.1 L 2558.6 1169.5 L 2563.8 1161.7 L 2567.3 1153.2 L 2569.2 1144 L 2569.2 1134.7 L 2567.3 1125.6 L 2563.8 1117 L 2558.6 1109.3 L 2552 1102.7 L 2544.3 1097.5 L 2535.7 1093.9 L 2526.6 1092.1 L 2517.3 1092.1 L 2508.1 1093.9 L 2499.5 1097.5 L 2491.8 1102.7 L 2485.2 1109.3 L 2480.1 1117 L 2476.5 1125.6 L 2474.7 1134.7 L 2474.7 1144 L 2476.5 1153.2 L 2480.1 1161.7 L 2485.2 1169.5 L 2491.8 1176.1 L 2499.5 1181.2 L 2508.1 1184.8 L 2517.3 1186.6 L 2526.6 1186.6 L 2535.7 1184.8 L 2535.7 1184.8 Z"/><path d="M 867 1925.4 L 874.1 1924 L 881.7 1920.9 L 888.4 1916.4 L 894.2 1910.6 L 898.7 1903.8 L 901.8 1896.3 L 903.4 1888.3 L 903.4 1880.2 L 901.8 1872.2 L 898.7 1864.7 L 894.2 1857.9 L 888.4 1852.1 L 881.7 1847.6 L 874.1 1844.5 L 867 1843.1 L 866.2 1842.9 L 858 1842.9 L 857.1 1843.1 L 850 1844.5 L 842.5 1847.6 L 835.7 1852.1 L 830 1857.9 L 825.4 1864.7 L 822.3 1872.2 L 820.7 1880.2 L 820.7 1888.3 L 822.3 1896.3 L 825.4 1903.8 L 830 1910.6 L 835.7 1916.4 L 842.5 1920.9 L 850 1924 L 857.1 1925.4 L 858 1925.6 L 866.2 1925.6 L 867 1925.4 L 867 1925.4 Z"/><path d="M 567.1 1925.3 L 570.2 1925 L 575.4 1923.4 L 578 1922.6 L 585.2 1918.8 L 591.5 1913.6 L 596.6 1907.3 L 600.5 1900.1 L 600.5 1900.1 L 602.8 1892.4 L 603.6 1884.3 L 602.8 1876.1 L 601.6 1872 L 600.5 1868.4 L 596.6 1861.2 L 591.5 1854.9 L 585.2 1849.7 L 578 1845.9 L 575.4 1845.1 L 570.2 1843.5 L 567.1 1843.2 L 564.1 1842.9 L 560 1842.9 L 557 1843.2 L 554 1843.5 L 548.8 1845.1 L 546.2 1845.9 L 539 1849.7 L 532.7 1854.9 L 527.5 1861.2 L 523.7 1868.4 L 522.6 1872 L 521.3 1876.1 L 520.5 1884.3 L 521.3 1892.4 L 523.7 1900.1 L 523.7 1900.1 L 527.5 1907.3 L 532.7 1913.6 L 539 1918.8 L 546.2 1922.6 L 548.8 1923.4 L 554 1925 L 557 1925.3 L 560 1925.6 L 564.1 1925.6 L 567.1 1925.3 L 567.1 1925.3 Z"/><path d="M 667.1 1925.3 L 670.2 1925 L 675.4 1923.4 L 678 1922.6 L 685.2 1918.8 L 691.5 1913.6 L 696.6 1907.3 L 700.5 1900.1 L 700.5 1900.1 L 702.8 1892.4 L 703.6 1884.3 L 702.8 1876.1 L 701.6 1872 L 700.5 1868.4 L 696.6 1861.2 L 691.5 1854.9 L 685.2 1849.7 L 678 1845.9 L 675.4 1845.1 L 670.2 1843.5 L 667.1 1843.2 L 664.1 1842.9 L 660 1842.9 L 657 1843.2 L 654 1843.5 L 648.8 1845.1 L 646.2 1845.9 L 639 1849.7 L 632.7 1854.9 L 627.5 1861.2 L 623.7 1868.4 L 622.6 1872 L 621.3 1876.1 L 620.5 1884.3 L 621.3 1892.4 L 623.7 1900.1 L 623.7 1900.1 L 627.5 1907.3 L 632.7 1913.6 L 639 1918.8 L 646.2 1922.6 L 648.8 1923.4 L 654 1925 L 657 1925.3 L 660 1925.6 L 664.1 1925.6 L 667.1 1925.3 L 667.1 1925.3 Z"/><path d="M 803.4 1842.9 L 720.7 1842.9 L 720.7 1925.6 L 803.4 1925.6 L 803.4 1842.9 L 803.4 1842.9 Z"/><path d="M 2725.2 1946.3 L 2725.2 1946.3 L 2725.2 1946.3 L 2732.1 1943.4 L 2732.1 1943.4 L 2738.3 1939.3 L 2743.6 1934 L 2743.6 1934 L 2747.7 1927.8 L 2749.3 1924 L 2750.6 1920.9 L 2752 1913.6 L 2752 1906.1 L 2750.6 1898.8 L 2750.6 1898.8 L 2747.7 1891.9 L 2747.7 1891.9 L 2743.6 1885.7 L 2738.3 1880.5 L 2737.9 1880.2 L 2732.1 1876.3 L 2726.8 1874.1 L 2725.2 1873.5 L 2717.9 1872 L 2710.4 1872 L 2703.1 1873.5 L 2701.6 1874.1 L 2696.2 1876.3 L 2690.4 1880.2 L 2690 1880.5 L 2684.7 1885.7 L 2680.6 1891.9 L 2680.6 1891.9 L 2677.7 1898.8 L 2677.7 1898.8 L 2676.3 1906.1 L 2676.3 1913.6 L 2677.7 1920.9 L 2679 1924 L 2680.6 1927.8 L 2684.7 1934 L 2684.7 1934 L 2690 1939.3 L 2696.2 1943.4 L 2696.2 1943.4 L 2703.1 1946.3 L 2703.1 1946.3 L 2703.1 1946.3 L 2710.4 1947.8 L 2717.9 1947.8 L 2725.2 1946.3 L 2725.2 1946.3 Z"/><path d="M 2878.6 2034.9 L 2878.6 2034.9 L 2878.6 2034.9 L 2885.5 2032 L 2885.5 2032 L 2891.7 2027.9 L 2897 2022.6 L 2897 2022.6 L 2901.2 2016.4 L 2903.4 2011.1 L 2904 2009.5 L 2905.5 2002.2 L 2905.5 1994.7 L 2904 1987.4 L 2904 1987.4 L 2901.2 1980.5 L 2901.2 1980.5 L 2897 1974.3 L 2891.7 1969 L 2888.6 1967 L 2885.5 1964.9 L 2880.2 1962.7 L 2878.6 1962 L 2871.3 1960.6 L 2863.9 1960.6 L 2856.5 1962 L 2855 1962.7 L 2849.7 1964.9 L 2846.6 1967 L 2843.4 1969 L 2838.2 1974.3 L 2834 1980.5 L 2834 1980.5 L 2831.2 1987.4 L 2831.2 1987.4 L 2829.7 1994.7 L 2829.7 2002.2 L 2831.2 2009.5 L 2831.8 2011.1 L 2834 2016.4 L 2838.2 2022.6 L 2838.2 2022.6 L 2843.4 2027.9 L 2849.7 2032 L 2849.7 2032 L 2856.5 2034.9 L 2856.5 2034.9 L 2856.5 2034.9 L 2863.9 2036.3 L 2871.3 2036.3 L 2878.6 2034.9 L 2878.6 2034.9 Z"/><path d="M 2373.9 2132.4 L 2382.5 2128.9 L 2390.2 2123.7 L 2396.8 2117.1 L 2402 2109.4 L 2405.5 2100.8 L 2407.4 2091.7 L 2407.4 2082.4 L 2405.5 2073.2 L 2402 2064.6 L 2396.8 2056.9 L 2390.2 2050.3 L 2382.5 2045.1 L 2373.9 2041.6 L 2364.8 2039.8 L 2355.5 2039.8 L 2346.3 2041.6 L 2337.7 2045.1 L 2330 2050.3 L 2323.4 2056.9 L 2318.2 2064.6 L 2314.7 2073.2 L 2312.9 2082.4 L 2312.9 2091.7 L 2314.7 2100.8 L 2318.2 2109.4 L 2323.4 2117.1 L 2330 2123.7 L 2337.7 2128.9 L 2346.3 2132.4 L 2355.5 2134.3 L 2364.8 2134.3 L 2373.9 2132.4 L 2373.9 2132.4 Z"/><path d="M 1112.1 2132.4 L 1120.7 2128.9 L 1128.4 2123.7 L 1135 2117.1 L 1140.2 2109.4 L 1143.7 2100.8 L 1145.5 2091.7 L 1145.5 2082.4 L 1143.7 2073.2 L 1140.2 2064.6 L 1135 2056.9 L 1128.4 2050.3 L 1120.7 2045.1 L 1112.1 2041.6 L 1103 2039.8 L 1093.6 2039.8 L 1084.5 2041.6 L 1075.9 2045.1 L 1068.2 2050.3 L 1061.6 2056.9 L 1056.4 2064.6 L 1052.9 2073.2 L 1051.1 2082.4 L 1051.1 2091.7 L 1052.9 2100.8 L 1056.4 2109.4 L 1061.6 2117.1 L 1068.2 2123.7 L 1075.9 2128.9 L 1084.5 2132.4 L 1093.6 2134.3 L 1103 2134.3 L 1112.1 2132.4 L 1112.1 2132.4 Z"/><path d="M 714 2149.3 L 717 2149 L 722.2 2147.5 L 724.8 2146.7 L 732 2142.8 L 738.3 2137.7 L 743.5 2131.4 L 747.3 2124.2 L 747.3 2124.2 L 749.7 2116.4 L 750.5 2108.3 L 749.7 2100.2 L 748.1 2095.1 L 747.3 2092.4 L 743.5 2085.2 L 738.3 2078.9 L 732 2073.8 L 724.8 2069.9 L 722.2 2069.1 L 717 2067.6 L 714 2067.3 L 711 2067 L 706.9 2067 L 703.9 2067.3 L 700.8 2067.6 L 695.6 2069.1 L 693 2069.9 L 685.9 2073.8 L 679.6 2078.9 L 674.4 2085.2 L 670.6 2092.4 L 669.7 2095.1 L 668.2 2100.2 L 667.4 2108.3 L 668.2 2116.4 L 670.6 2124.2 L 670.6 2124.2 L 674.4 2131.4 L 679.6 2137.7 L 685.9 2142.8 L 693 2146.7 L 695.6 2147.5 L 700.8 2149 L 703.9 2149.3 L 706.9 2149.6 L 711 2149.6 L 714 2149.3 L 714 2149.3 Z"/><path d="M 2597.3 2167.9 L 2597.3 2167.9 L 2597.3 2167.9 L 2604.1 2165.1 L 2604.1 2165.1 L 2610.4 2160.9 L 2615.6 2155.6 L 2617.7 2152.5 L 2619.8 2149.4 L 2619.9 2149 L 2622.6 2142.5 L 2624.1 2135.2 L 2624.1 2127.8 L 2622.6 2120.4 L 2622.6 2120.4 L 2619.8 2113.6 L 2619.8 2113.6 L 2615.6 2107.4 L 2610.4 2102.1 L 2608.4 2100.8 L 2604.1 2097.9 L 2598.8 2095.7 L 2597.3 2095.1 L 2589.9 2093.6 L 2582.5 2093.6 L 2575.2 2095.1 L 2573.6 2095.7 L 2568.3 2097.9 L 2564 2100.8 L 2562.1 2102.1 L 2556.8 2107.4 L 2552.6 2113.6 L 2552.6 2113.6 L 2549.8 2120.4 L 2549.8 2120.4 L 2548.3 2127.8 L 2548.3 2135.2 L 2549.8 2142.5 L 2552.5 2149 L 2552.6 2149.4 L 2554.7 2152.5 L 2556.8 2155.6 L 2562.1 2160.9 L 2568.3 2165.1 L 2568.3 2165.1 L 2575.2 2167.9 L 2575.2 2167.9 L 2575.2 2167.9 L 2582.5 2169.4 L 2589.9 2169.4 L 2597.3 2167.9 L 2597.3 2167.9 Z"/><path d="M 764 2235.9 L 767 2235.6 L 772.2 2234.1 L 774.8 2233.3 L 782 2229.4 L 788.3 2224.3 L 793.5 2218 L 797.3 2210.8 L 797.8 2209 L 799.7 2203 L 800.5 2194.9 L 799.7 2186.8 L 798.7 2183.7 L 797.3 2179 L 793.5 2171.8 L 788.3 2165.5 L 782 2160.4 L 774.8 2156.5 L 772.2 2155.7 L 767 2154.2 L 764 2153.9 L 761 2153.6 L 756.9 2153.6 L 753.9 2153.9 L 750.8 2154.2 L 745.6 2155.7 L 743 2156.5 L 735.9 2160.4 L 729.6 2165.5 L 724.4 2171.8 L 720.6 2179 L 719.1 2183.7 L 718.2 2186.8 L 717.4 2194.9 L 718.2 2203 L 720 2209 L 720.6 2210.8 L 724.4 2218 L 729.6 2224.3 L 735.9 2229.4 L 743 2233.3 L 745.6 2234.1 L 750.8 2235.6 L 753.9 2235.9 L 756.9 2236.2 L 761 2236.2 L 764 2235.9 L 764 2235.9 Z"/><path d="M 2750.7 2256.5 L 2750.7 2256.5 L 2750.7 2256.5 L 2757.6 2253.6 L 2757.6 2253.6 L 2763.8 2249.5 L 2769.1 2244.2 L 2769.1 2244.2 L 2773.2 2238 L 2773.9 2236.2 L 2776.1 2231.1 L 2777.5 2223.8 L 2777.5 2216.3 L 2776.1 2209 L 2776.1 2209 L 2773.2 2202.1 L 2773.2 2202.1 L 2769.1 2195.9 L 2763.8 2190.7 L 2760.7 2188.6 L 2757.6 2186.5 L 2752.2 2184.3 L 2750.7 2183.7 L 2743.4 2182.2 L 2735.9 2182.2 L 2728.6 2183.7 L 2727 2184.3 L 2721.7 2186.5 L 2718.6 2188.6 L 2715.5 2190.7 L 2710.2 2195.9 L 2706.1 2202.1 L 2706.1 2202.1 L 2703.2 2209 L 2703.2 2209 L 2701.8 2216.3 L 2701.8 2223.8 L 2703.2 2231.1 L 2705.3 2236.2 L 2706.1 2238 L 2710.2 2244.2 L 2710.2 2244.2 L 2715.5 2249.5 L 2721.7 2253.6 L 2721.7 2253.6 L 2728.6 2256.5 L 2728.6 2256.5 L 2728.6 2256.5 L 2735.9 2258 L 2743.4 2258 L 2750.7 2256.5 L 2750.7 2256.5 Z"/><path d="M 865.4 2296.6 L 824.1 2225 L 752.5 2266.4 L 793.8 2338 L 865.4 2296.6 L 865.4 2296.6 Z"/><path d="M 1734.5 2703.6 L 1737.5 2703.3 L 1742.7 2701.8 L 1745.3 2701 L 1752.5 2697.1 L 1758.8 2692 L 1763.9 2685.7 L 1767.8 2678.5 L 1767.8 2678.5 L 1770.1 2670.7 L 1770.9 2662.6 L 1770.1 2654.5 L 1768.6 2649.3 L 1767.8 2646.7 L 1763.9 2639.5 L 1758.8 2633.2 L 1752.5 2628.1 L 1745.3 2624.2 L 1742.7 2623.4 L 1737.5 2621.9 L 1734.5 2621.6 L 1731.4 2621.3 L 1727.4 2621.3 L 1724.3 2621.6 L 1721.3 2621.9 L 1716.1 2623.4 L 1713.5 2624.2 L 1706.3 2628.1 L 1700 2633.2 L 1694.9 2639.5 L 1691 2646.7 L 1690.2 2649.3 L 1688.7 2654.5 L 1687.9 2662.6 L 1688.7 2670.7 L 1691 2678.5 L 1691 2678.5 L 1694.9 2685.7 L 1700 2692 L 1706.3 2697.1 L 1713.5 2701 L 1716.1 2701.8 L 1721.3 2703.3 L 1724.3 2703.6 L 1727.4 2703.9 L 1731.4 2703.9 L 1734.5 2703.6 L 1734.5 2703.6 Z"/><path d="M 1634.5 2703.6 L 1637.5 2703.3 L 1642.7 2701.8 L 1645.3 2701 L 1652.5 2697.1 L 1658.8 2692 L 1663.9 2685.7 L 1667.8 2678.5 L 1667.8 2678.5 L 1670.1 2670.7 L 1670.9 2662.6 L 1670.1 2654.5 L 1668.6 2649.3 L 1667.8 2646.7 L 1663.9 2639.5 L 1658.8 2633.2 L 1652.5 2628.1 L 1645.3 2624.2 L 1642.7 2623.4 L 1637.5 2621.9 L 1634.5 2621.6 L 1631.4 2621.3 L 1627.4 2621.3 L 1624.3 2621.6 L 1621.3 2621.9 L 1616.1 2623.4 L 1613.5 2624.2 L 1606.3 2628.1 L 1600 2633.2 L 1594.9 2639.5 L 1591 2646.7 L 1590.2 2649.3 L 1588.7 2654.5 L 1587.9 2662.6 L 1588.7 2670.7 L 1591 2678.5 L 1591 2678.5 L 1594.9 2685.7 L 1600 2692 L 1606.3 2697.1 L 1613.5 2701 L 1616.1 2701.8 L 1621.3 2703.3 L 1624.3 2703.6 L 1627.4 2703.9 L 1631.4 2703.9 L 1634.5 2703.6 L 1634.5 2703.6 Z"/><path d="M 1934.5 2703.6 L 1937.5 2703.3 L 1942.7 2701.8 L 1945.3 2701 L 1952.5 2697.1 L 1958.8 2692 L 1963.9 2685.7 L 1967.8 2678.5 L 1967.8 2678.5 L 1970.1 2670.7 L 1970.9 2662.6 L 1970.1 2654.5 L 1968.6 2649.3 L 1967.8 2646.7 L 1963.9 2639.5 L 1958.8 2633.2 L 1952.5 2628.1 L 1945.3 2624.2 L 1942.7 2623.4 L 1937.5 2621.9 L 1934.5 2621.6 L 1931.4 2621.3 L 1927.4 2621.3 L 1924.3 2621.6 L 1921.3 2621.9 L 1916.1 2623.4 L 1913.5 2624.2 L 1906.3 2628.1 L 1900 2633.2 L 1894.9 2639.5 L 1891 2646.7 L 1890.2 2649.3 L 1888.7 2654.5 L 1887.9 2662.6 L 1888.7 2670.7 L 1891 2678.5 L 1891 2678.5 L 1894.9 2685.7 L 1900 2692 L 1906.3 2697.1 L 1913.5 2701 L 1916.1 2701.8 L 1921.3 2703.3 L 1924.3 2703.6 L 1927.4 2703.9 L 1931.4 2703.9 L 1934.5 2703.6 L 1934.5 2703.6 Z"/><path d="M 1834.5 2703.6 L 1837.5 2703.3 L 1842.7 2701.8 L 1845.3 2701 L 1852.5 2697.1 L 1858.8 2692 L 1863.9 2685.7 L 1867.8 2678.5 L 1867.8 2678.5 L 1870.1 2670.7 L 1870.9 2662.6 L 1870.1 2654.5 L 1868.6 2649.3 L 1867.8 2646.7 L 1863.9 2639.5 L 1858.8 2633.2 L 1852.5 2628.1 L 1845.3 2624.2 L 1842.7 2623.4 L 1837.5 2621.9 L 1834.5 2621.6 L 1831.4 2621.3 L 1827.4 2621.3 L 1824.3 2621.6 L 1821.3 2621.9 L 1816.1 2623.4 L 1813.5 2624.2 L 1806.3 2628.1 L 1800 2633.2 L 1794.9 2639.5 L 1791 2646.7 L 1790.2 2649.3 L 1788.7 2654.5 L 1787.9 2662.6 L 1788.7 2670.7 L 1791 2678.5 L 1791 2678.5 L 1794.9 2685.7 L 1800 2692 L 1806.3 2697.1 L 1813.5 2701 L 1816.1 2701.8 L 1821.3 2703.3 L 1824.3 2703.6 L 1827.4 2703.9 L 1831.4 2703.9 L 1834.5 2703.6 L 1834.5 2703.6 Z"/><path d="M 1534.5 2703.6 L 1537.5 2703.3 L 1542.7 2701.8 L 1545.3 2701 L 1552.5 2697.1 L 1558.8 2692 L 1563.9 2685.7 L 1567.8 2678.5 L 1567.8 2678.5 L 1570.1 2670.7 L 1570.9 2662.6 L 1570.1 2654.5 L 1568.6 2649.3 L 1567.8 2646.7 L 1563.9 2639.5 L 1558.8 2633.2 L 1552.5 2628.1 L 1545.3 2624.2 L 1542.7 2623.4 L 1537.5 2621.9 L 1534.5 2621.6 L 1531.4 2621.3 L 1527.4 2621.3 L 1524.3 2621.6 L 1521.3 2621.9 L 1516.1 2623.4 L 1513.5 2624.2 L 1506.3 2628.1 L 1500 2633.2 L 1494.9 2639.5 L 1491 2646.7 L 1490.2 2649.3 L 1488.7 2654.5 L 1487.9 2662.6 L 1488.7 2670.7 L 1491 2678.5 L 1491 2678.5 L 1494.9 2685.7 L 1500 2692 L 1506.3 2697.1 L 1513.5 2701 L 1516.1 2701.8 L 1521.3 2703.3 L 1524.3 2703.6 L 1527.4 2703.9 L 1531.4 2703.9 L 1534.5 2703.6 L 1534.5 2703.6 Z"/><path d="M 1534.5 2803.6 L 1537.5 2803.3 L 1542.7 2801.8 L 1545.3 2801 L 1552.5 2797.1 L 1558.8 2792 L 1563.9 2785.7 L 1567.8 2778.5 L 1567.8 2778.5 L 1570.1 2770.7 L 1570.9 2762.6 L 1570.1 2754.5 L 1568.6 2749.3 L 1567.8 2746.7 L 1563.9 2739.5 L 1558.8 2733.2 L 1552.5 2728.1 L 1545.3 2724.2 L 1542.7 2723.4 L 1537.5 2721.9 L 1534.5 2721.6 L 1531.4 2721.3 L 1527.4 2721.3 L 1524.3 2721.6 L 1521.3 2721.9 L 1516.1 2723.4 L 1513.5 2724.2 L 1506.3 2728.1 L 1500 2733.2 L 1494.9 2739.5 L 1491 2746.7 L 1490.2 2749.3 L 1488.7 2754.5 L 1487.9 2762.6 L 1488.7 2770.7 L 1491 2778.5 L 1491 2778.5 L 1494.9 2785.7 L 1500 2792 L 1506.3 2797.1 L 1513.5 2801 L 1516.1 2801.8 L 1521.3 2803.3 L 1524.3 2803.6 L 1527.4 2803.9 L 1531.4 2803.9 L 1534.5 2803.6 L 1534.5 2803.6 Z"/><path d="M 1634.5 2803.6 L 1637.5 2803.3 L 1642.7 2801.8 L 1645.3 2801 L 1652.5 2797.1 L 1658.8 2792 L 1663.9 2785.7 L 1667.8 2778.5 L 1667.8 2778.5 L 1670.1 2770.7 L 1670.9 2762.6 L 1670.1 2754.5 L 1668.6 2749.3 L 1667.8 2746.7 L 1663.9 2739.5 L 1658.8 2733.2 L 1652.5 2728.1 L 1645.3 2724.2 L 1642.7 2723.4 L 1637.5 2721.9 L 1634.5 2721.6 L 1631.4 2721.3 L 1627.4 2721.3 L 1624.3 2721.6 L 1621.3 2721.9 L 1616.1 2723.4 L 1613.5 2724.2 L 1606.3 2728.1 L 1600 2733.2 L 1594.9 2739.5 L 1591 2746.7 L 1590.2 2749.3 L 1588.7 2754.5 L 1587.9 2762.6 L 1588.7 2770.7 L 1591 2778.5 L 1591 2778.5 L 1594.9 2785.7 L 1600 2792 L 1606.3 2797.1 L 1613.5 2801 L 1616.1 2801.8 L 1621.3 2803.3 L 1624.3 2803.6 L 1627.4 2803.9 L 1631.4 2803.9 L 1634.5 2803.6 L 1634.5 2803.6 Z"/><path d="M 1734.5 2803.6 L 1737.5 2803.3 L 1742.7 2801.8 L 1745.3 2801 L 1752.5 2797.1 L 1758.8 2792 L 1763.9 2785.7 L 1767.8 2778.5 L 1767.8 2778.5 L 1770.1 2770.7 L 1770.9 2762.6 L 1770.1 2754.5 L 1768.6 2749.3 L 1767.8 2746.7 L 1763.9 2739.5 L 1758.8 2733.2 L 1752.5 2728.1 L 1745.3 2724.2 L 1742.7 2723.4 L 1737.5 2721.9 L 1734.5 2721.6 L 1731.4 2721.3 L 1727.4 2721.3 L 1724.3 2721.6 L 1721.3 2721.9 L 1716.1 2723.4 L 1713.5 2724.2 L 1706.3 2728.1 L 1700 2733.2 L 1694.9 2739.5 L 1691 2746.7 L 1690.2 2749.3 L 1688.7 2754.5 L 1687.9 2762.6 L 1688.7 2770.7 L 1691 2778.5 L 1691 2778.5 L 1694.9 2785.7 L 1700 2792 L 1706.3 2797.1 L 1713.5 2801 L 1716.1 2801.8 L 1721.3 2803.3 L 1724.3 2803.6 L 1727.4 2803.9 L 1731.4 2803.9 L 1734.5 2803.6 L 1734.5 2803.6 Z"/><path d="M 1834.5 2803.6 L 1837.5 2803.3 L 1842.7 2801.8 L 1845.3 2801 L 1852.5 2797.1 L 1858.8 2792 L 1863.9 2785.7 L 1867.8 2778.5 L 1867.8 2778.5 L 1870.1 2770.7 L 1870.9 2762.6 L 1870.1 2754.5 L 1868.6 2749.3 L 1867.8 2746.7 L 1863.9 2739.5 L 1858.8 2733.2 L 1852.5 2728.1 L 1845.3 2724.2 L 1842.7 2723.4 L 1837.5 2721.9 L 1834.5 2721.6 L 1831.4 2721.3 L 1827.4 2721.3 L 1824.3 2721.6 L 1821.3 2721.9 L 1816.1 2723.4 L 1813.5 2724.2 L 1806.3 2728.1 L 1800 2733.2 L 1794.9 2739.5 L 1791 2746.7 L 1790.2 2749.3 L 1788.7 2754.5 L 1787.9 2762.6 L 1788.7 2770.7 L 1791 2778.5 L 1791 2778.5 L 1794.9 2785.7 L 1800 2792 L 1806.3 2797.1 L 1813.5 2801 L 1816.1 2801.8 L 1821.3 2803.3 L 1824.3 2803.6 L 1827.4 2803.9 L 1831.4 2803.9 L 1834.5 2803.6 L 1834.5 2803.6 Z"/><path d="M 1970.7 2721.3 L 1888.1 2721.3 L 1888.1 2803.9 L 1970.7 2803.9 L 1970.7 2721.3 L 1970.7 2721.3 Z"/></g><mask id="pcb_top-sm_mask" color="#000"><rect x="1.9" y="2" width="3455" height="2992.1" fill="#fff"/><use xlink:href="#pcb_top-sm"/></mask><mask id="pcb_top-cu_finish-mask" color="#fff"><use xlink:href="#pcb_top-cu"/></mask></defs><g mask="url(#pcb_top-sm_mask)"><rect x="1.9" y="2" width="3455" height="2992.1" fill="currentColor" class="pcb_board-sm"/><g id="pcb_top-ss" class="pcb_board-ss" fill="currentColor" stroke="currentColor"><path stroke-width="11.8" fill="none" d="M 2260.9 2173.3 L 2260.9 2232.3 M 2260.9 2232.3 L 2283.4 2232.3 M 2283.4 2232.3 L 2289 2229.5 M 2289 2229.5 L 2291.8 2226.7 M 2291.8 2226.7 L 2294.6 2221.1 M 2294.6 2221.1 L 2294.6 2212.7 M 2294.6 2212.7 L 2291.8 2207 M 2291.8 2207 L 2289 2204.2 M 2289 2204.2 L 2283.4 2201.4 M 2283.4 2201.4 L 2260.9 2201.4 M 2314.3 2232.3 L 2328.4 2173.3 M 2328.4 2173.3 L 2339.6 2215.5 M 2339.6 2215.5 L 2350.9 2173.3 M 2350.9 2173.3 L 2364.9 2232.3 M 2421.2 2173.3 L 2401.5 2201.4 M 2387.4 2173.3 L 2387.4 2232.3 M 2387.4 2232.3 L 2409.9 2232.3 M 2409.9 2232.3 L 2415.6 2229.5 M 2415.6 2229.5 L 2418.4 2226.7 M 2418.4 2226.7 L 2421.2 2221.1 M 2421.2 2221.1 L 2421.2 2212.7 M 2421.2 2212.7 L 2418.4 2207 M 2418.4 2207 L 2415.6 2204.2 M 2415.6 2204.2 L 2409.9 2201.4 M 2409.9 2201.4 L 2387.4 2201.4 M 2475.4 1284.3 L 2469.7 1287.1 M 2469.7 1287.1 L 2461.3 1287.1 M 2461.3 1287.1 L 2452.9 1284.3 M 2452.9 1284.3 L 2447.2 1278.6 M 2447.2 1278.6 L 2444.4 1273 M 2444.4 1273 L 2441.6 1261.8 M 2441.6 1261.8 L 2441.6 1253.3 M 2441.6 1253.3 L 2444.4 1242.1 M 2444.4 1242.1 L 2447.2 1236.4 M 2447.2 1236.4 L 2452.9 1230.8 M 2452.9 1230.8 L 2461.3 1228 M 2461.3 1228 L 2466.9 1228 M 2466.9 1228 L 2475.4 1230.8 M 2475.4 1230.8 L 2478.2 1233.6 M 2478.2 1233.6 L 2478.2 1253.3 M 2478.2 1253.3 L 2466.9 1253.3 M 2503.5 1228 L 2503.5 1287.1 M 2503.5 1287.1 L 2537.2 1228 M 2537.2 1228 L 2537.2 1287.1 M 2565.3 1228 L 2565.3 1287.1 M 2565.3 1287.1 L 2579.4 1287.1 M 2579.4 1287.1 L 2587.8 1284.3 M 2587.8 1284.3 L 2593.5 1278.6 M 2593.5 1278.6 L 2596.3 1273 M 2596.3 1273 L 2599.1 1261.8 M 2599.1 1261.8 L 2599.1 1253.3 M 2599.1 1253.3 L 2596.3 1242.1 M 2596.3 1242.1 L 2593.5 1236.4 M 2593.5 1236.4 L 2587.8 1230.8 M 2587.8 1230.8 L 2579.4 1228 M 2579.4 1228 L 2565.3 1228 M 2318.9 840.6 L 2318.9 899.7 M 2318.9 899.7 L 2332.9 899.7 M 2332.9 899.7 L 2341.4 896.9 M 2341.4 896.9 L 2347 891.2 M 2347 891.2 L 2349.8 885.6 M 2349.8 885.6 L 2352.6 874.4 M 2352.6 874.4 L 2352.6 865.9 M 2352.6 865.9 L 2349.8 854.7 M 2349.8 854.7 L 2347 849 M 2347 849 L 2341.4 843.4 M 2341.4 843.4 L 2332.9 840.6 M 2332.9 840.6 L 2318.9 840.6 M 2375.1 857.5 L 2403.2 857.5 M 2369.5 840.6 L 2389.2 899.7 M 2389.2 899.7 L 2408.9 840.6 M 2420.1 899.7 L 2453.9 899.7 M 2437 840.6 L 2437 899.7 M 1030.5 846.2 L 1027.7 843.4 M 1027.7 843.4 L 1019.2 840.6 M 1019.2 840.6 L 1013.6 840.6 M 1013.6 840.6 L 1005.2 843.4 M 1005.2 843.4 L 999.5 849 M 999.5 849 L 996.7 854.7 M 996.7 854.7 L 993.9 865.9 M 993.9 865.9 L 993.9 874.4 M 993.9 874.4 L 996.7 885.6 M 996.7 885.6 L 999.5 891.2 M 999.5 891.2 L 1005.2 896.9 M 1005.2 896.9 L 1013.6 899.7 M 1013.6 899.7 L 1019.2 899.7 M 1019.2 899.7 L 1027.7 896.9 M 1027.7 896.9 L 1030.5 894 M 1083.9 840.6 L 1055.8 840.6 M 1055.8 840.6 L 1055.8 899.7 M 1103.6 840.6 L 1103.6 899.7 M 1137.3 840.6 L 1112 874.4 M 1137.3 899.7 L 1103.6 865.9 M 1041.9 2177.2 L 1041.9 2236.3 M 1041.9 2236.3 L 1064.4 2236.3 M 1064.4 2236.3 L 1070 2233.5 M 1070 2233.5 L 1072.8 2230.7 M 1072.8 2230.7 L 1075.6 2225 M 1075.6 2225 L 1075.6 2216.6 M 1075.6 2216.6 L 1072.8 2211 M 1072.8 2211 L 1070 2208.2 M 1070 2208.2 L 1064.4 2205.3 M 1064.4 2205.3 L 1041.9 2205.3 M 1134.7 2177.2 L 1115 2205.3 M 1100.9 2177.2 L 1100.9 2236.3 M 1100.9 2236.3 L 1123.4 2236.3 M 1123.4 2236.3 L 1129.1 2233.5 M 1129.1 2233.5 L 1131.9 2230.7 M 1131.9 2230.7 L 1134.7 2225 M 1134.7 2225 L 1134.7 2216.6 M 1134.7 2216.6 L 1131.9 2211 M 1131.9 2211 L 1129.1 2208.2 M 1129.1 2208.2 L 1123.4 2205.3 M 1123.4 2205.3 L 1100.9 2205.3 M 1190.9 2233.5 L 1185.3 2236.3 M 1185.3 2236.3 L 1176.9 2236.3 M 1176.9 2236.3 L 1168.4 2233.5 M 1168.4 2233.5 L 1162.8 2227.8 M 1162.8 2227.8 L 1160 2222.2 M 1160 2222.2 L 1157.2 2211 M 1157.2 2211 L 1157.2 2202.5 M 1157.2 2202.5 L 1160 2191.3 M 1160 2191.3 L 1162.8 2185.7 M 1162.8 2185.7 L 1168.4 2180 M 1168.4 2180 L 1176.9 2177.2 M 1176.9 2177.2 L 1182.5 2177.2 M 1182.5 2177.2 L 1190.9 2180 M 1190.9 2180 L 1193.7 2182.8 M 1193.7 2182.8 L 1193.7 2202.5 M 1193.7 2202.5 L 1182.5 2202.5"/><path stroke-width="7.9" fill="none" d="M 791.8 2012.2 L 801.2 2028.4 M 799.7 2003.3 L 772.1 2034.4 M 772.1 2034.4 L 812.8 2026 M 805.1 2065.1 L 827.8 2052 M 796.6 2050.5 L 814.5 2040.2 M 814.5 2040.2 L 818.7 2040 M 818.7 2040 L 822.2 2042.3 M 822.2 2042.3 L 825 2047.1 M 825 2047.1 L 825.2 2051.3 M 825.2 2051.3 L 824.6 2053.9 M 811.6 2076.5 L 819.1 2089.5 M 803.1 2087.9 L 832.3 2071.1 M 832.3 2071.1 L 836.5 2070.8 M 836.5 2070.8 L 840 2073.1 M 840 2073.1 L 841.9 2076.4 M 851.2 2092.6 L 847.7 2090.3 M 847.7 2090.3 L 845.2 2089.6 M 845.2 2089.6 L 841 2089.9 M 841 2089.9 L 831.3 2095.5 M 831.3 2095.5 L 828.9 2099 M 828.9 2099 L 828.3 2101.5 M 828.3 2101.5 L 828.5 2105.7 M 828.5 2105.7 L 831.3 2110.6 M 831.3 2110.6 L 834.8 2112.9 M 834.8 2112.9 L 837.4 2113.6 M 837.4 2113.6 L 841.6 2113.3 M 841.6 2113.3 L 851.3 2107.7 M 851.3 2107.7 L 853.6 2104.2 M 853.6 2104.2 L 854.3 2101.7 M 854.3 2101.7 L 854 2097.5 M 854 2097.5 L 851.2 2092.6 M 881.2 2144.6 L 847.1 2164.2 M 847.1 2164.2 L 854.6 2177.2 M 854.6 2177.2 L 858.1 2179.5 M 858.1 2179.5 L 860.7 2180.2 M 860.7 2180.2 L 864.9 2180 M 864.9 2180 L 869.8 2177.2 M 869.8 2177.2 L 872.1 2173.7 M 872.1 2173.7 L 872.7 2171.1 M 872.7 2171.1 L 872.5 2166.9 M 872.5 2166.9 L 865 2153.9 M 900.9 2178.7 L 878.2 2191.8 M 884.7 2188 L 882.4 2191.5 M 882.4 2191.5 L 881.7 2194.1 M 881.7 2194.1 L 881.9 2198.3 M 881.9 2198.3 L 883.8 2201.5 M 898.8 2227.5 L 926.4 2211.6 M 926.4 2211.6 L 928.7 2208.1 M 928.7 2208.1 L 929.4 2205.5 M 929.4 2205.5 L 929.2 2201.3 M 929.2 2201.3 L 926.3 2196.5 M 926.3 2196.5 L 922.8 2194.1 M 919.9 2215.3 L 919.7 2211.1 M 919.7 2211.1 L 915.9 2204.6 M 915.9 2204.6 L 912.4 2202.3 M 912.4 2202.3 L 909.9 2201.6 M 909.9 2201.6 L 905.7 2201.9 M 905.7 2201.9 L 895.9 2207.5 M 895.9 2207.5 L 893.6 2211 M 893.6 2211 L 892.9 2213.6 M 892.9 2213.6 L 893.2 2217.8 M 893.2 2217.8 L 896.9 2224.3 M 896.9 2224.3 L 900.4 2226.6 M 930.9 2230.6 L 908.2 2243.7 M 911.4 2241.9 L 910.7 2244.4 M 910.7 2244.4 L 911 2248.6 M 911 2248.6 L 913.8 2253.5 M 913.8 2253.5 L 917.3 2255.8 M 917.3 2255.8 L 921.5 2255.5 M 921.5 2255.5 L 939.4 2245.2 M 921.5 2255.5 L 919.2 2259 M 919.2 2259 L 919.4 2263.2 M 919.4 2263.2 L 922.2 2268.1 M 922.2 2268.1 L 925.7 2270.4 M 925.7 2270.4 L 929.9 2270.1 M 929.9 2270.1 L 947.8 2259.8"/><path stroke-width="5.9" fill="none" d="M 2786 2065 A 59.1 59.1 0 0 1 2667.8 2065 A 59.1 59.1 0 0 1 2786 2065 M 2828.6 1987.3 L 2743.3 1938.1 M 2673.8 1920.7 L 2575.4 2091.2 M 2710.5 2191.9 L 2625.2 2142.7 M 2878.4 2038.8 L 2784.9 2200.7 M 2786 2065 A 59.1 59.1 0 0 1 2667.8 2065 A 59.1 59.1 0 0 1 2786 2065 M 2828.6 1987.3 L 2743.3 1938.1 M 2673.8 1920.7 L 2575.4 2091.2 M 2710.5 2191.9 L 2625.2 2142.7 M 2878.4 2038.8 L 2784.9 2200.7"/><path stroke-width="4.7" fill="none" d="M 637.4 2089.1 L 728.1 2036.8 M 738.6 2264.4 L 637.4 2089.1 M 829.3 2212 L 728.1 2036.8 M 738.6 2264.4 L 829.3 2212 M 763.6 2307.7 L 789.8 2353 M 789.8 2353 L 835.1 2326.8 M 1477 2815 L 1477 2610.2 M 1879.4 2815 L 1477 2815 M 1981.8 2610.2 L 1477 2610.2 M 1879.4 2815 L 1879.4 2712.6 M 1879.4 2712.6 L 1981.8 2712.6 M 1981.8 2712.6 L 1981.8 2610.2 M 1929.4 2815 L 1981.8 2815 M 1981.8 2815 L 1981.8 2762.6"/></g></g><use class="pcb_board-cf" mask="url(#pcb_top-cu_finish-mask)" xlink:href="#pcb_top-sm"/></g></g></svg>