<svg xmlns="http://www.w3.org/2000/svg" version="1.1" xmlns:xlink="http://www.w3.org/1999/xlink" stroke-width="0" stroke-linecap="round" stroke-linejoin="round" width="1.6739000000000002in" transform='rotate(180)' height="2.2436in" id="pcb_bottom" viewBox="2 1.9 1673.9 2243.6">
	<defs>
	<style>
	.pcb_board-fr4 {color:dimgrey;}
	.pcb_board-cu {color: lightgrey;}
	.pcb_board-cf {color: goldenrod;}
	.pcb_board-sm {color: black;opacity: 0.6;}
	.pcb_board-ss {color: white;}
	.pcb_board-sp {color: silver;}
	.pcb_board-out {color: black;}
	</style>
	<circle cx="0" cy="0" r="6.5" id="tool-T10-pad-1000"/><circle cx="0" cy="0" r="23.6" id="tool-D10-pad-1001"/><circle cx="0" cy="0" r="30" id="tool-D12-pad-1003"/><rect x="-88.6" y="-98.45" width="177.2" height="196.9" id="tool-D13-pad-1004"/><rect x="-88.6" y="-108.25" width="177.2" height="216.5" id="tool-D14-pad-1005"/><rect x="-62.6" y="-62.6" width="125.2" height="125.2" id="tool-D15-pad-1006"/><circle cx="0" cy="0" r="196.85" id="tool-D16-pad-1007"/><rect x="-12.8" y="-20.85" width="25.6" height="41.7" id="tool-D17-pad-1008"/><rect x="-17.7" y="-19.7" width="35.4" height="39.4" id="tool-D18-pad-1009"/><circle cx="0" cy="0" r="13.5" id="tool-D19-pad-1010"/><circle cx="0" cy="0" r="31.5" id="tool-D13-pad-1016"/><circle cx="0" cy="0" r="37.85" id="tool-D15-pad-1018"/><rect x="-96.45" y="-106.3" width="192.9" height="212.6" id="tool-D16-pad-1019"/><rect x="-96.45" y="-116.15" width="192.9" height="232.3" id="tool-D17-pad-1020"/><rect x="-70.45" y="-70.45" width="140.9" height="140.9" id="tool-D18-pad-1021"/><circle cx="0" cy="0" r="204.7" id="tool-D19-pad-1022"/><rect x="-20.65" y="-28.75" width="41.3" height="57.5" id="tool-D20-pad-1023"/><rect x="-25.6" y="-27.55" width="51.2" height="55.1" id="tool-D21-pad-1024"/><mask id="gerber-mask_1025" color="#000"><rect x="52.5" y="85.65" width="1433.3" height="1884.05" fill="#fff"/><use x="480" y="1917.7" xlink:href="#tool-D13-pad-1016"/><path d="M 519.2 1958.8 L 502.8 1865.7 L 440.8 1876.6 L 457.2 1969.7 L 519.2 1958.8 L 519.2 1958.8 Z"/><use x="1429" y="1755.7" xlink:href="#tool-D13-pad-1016"/><path d="M 1485.8 1757 L 1408.4 1702.8 L 1372.2 1754.4 L 1449.6 1808.6 L 1485.8 1757 L 1485.8 1757 Z"/><use x="1429" y="491.7" xlink:href="#tool-D13-pad-1016"/><path d="M 1449.6 438.8 L 1372.2 493 L 1408.4 544.6 L 1485.8 490.4 L 1449.6 438.8 L 1449.6 438.8 Z"/><use x="480.1" y="330.7" xlink:href="#tool-D13-pad-1016"/><path d="M 455.5 279.5 L 442.4 373.1 L 504.7 381.8 L 517.9 288.3 L 455.5 279.5 L 455.5 279.5 Z"/><use x="88" y="475.7" xlink:href="#tool-D13-pad-1016"/><path d="M 52.5 431.4 L 60.7 525.5 L 123.5 520 L 115.3 425.9 L 52.5 431.4 L 52.5 431.4 Z"/><use x="88" y="1770.7" xlink:href="#tool-D13-pad-1016"/><path d="M 115.3 1820.5 L 123.5 1726.4 L 60.7 1720.9 L 52.5 1815 L 115.3 1820.5 L 115.3 1820.5 Z"/><use x="929" y="1275.1" xlink:href="#tool-D15-pad-1018"/><use x="919.2" y="629.3" xlink:href="#tool-D16-pad-1019"/><use x="909.3" y="1554.5" xlink:href="#tool-D17-pad-1020"/><use x="752.8" y="1142.7" xlink:href="#tool-D18-pad-1021"/><use x="133.2" y="1142.7" xlink:href="#tool-D18-pad-1021"/><use x="443" y="1142.7" xlink:href="#tool-D19-pad-1022"/><use x="1212.4" y="1088.4" xlink:href="#tool-D20-pad-1023"/><use x="1175" y="1088.4" xlink:href="#tool-D20-pad-1023"/><use x="1137.6" y="1088.4" xlink:href="#tool-D20-pad-1023"/><use x="1137.6" y="1175" xlink:href="#tool-D20-pad-1023"/><use x="1212.4" y="1175" xlink:href="#tool-D20-pad-1023"/><use x="1175" y="1175" xlink:href="#tool-D20-pad-1023"/><use x="1033.3" y="113.2" xlink:href="#tool-D21-pad-1024"/><use x="1033.3" y="264.7" xlink:href="#tool-D21-pad-1024"/><use x="879.7" y="264.7" xlink:href="#tool-D21-pad-1024"/><use x="879.7" y="113.2" xlink:href="#tool-D21-pad-1024"/></mask><g id="pcb_bottom-cu" fill="currentColor" stroke="currentColor"><use x="480" y="1917.7" xlink:href="#tool-D10-pad-1001"/><path d="M 510.1 1952.4 L 496.4 1874.8 L 449.9 1883 L 463.6 1960.6 L 510.1 1952.4 L 510.1 1952.4 Z"/><use x="1429" y="1755.7" xlink:href="#tool-D10-pad-1001"/><path d="M 1474.8 1758.9 L 1410.3 1713.8 L 1383.2 1752.5 L 1447.7 1797.6 L 1474.8 1758.9 L 1474.8 1758.9 Z"/><use x="1429" y="491.7" xlink:href="#tool-D10-pad-1001"/><path d="M 1447.7 449.8 L 1383.2 494.9 L 1410.3 533.6 L 1474.8 488.5 L 1447.7 449.8 L 1447.7 449.8 Z"/><use x="480.1" y="330.7" xlink:href="#tool-D10-pad-1001"/><path d="M 462.2 288.4 L 451.2 366.4 L 498 373 L 509 295 L 462.2 288.4 L 462.2 288.4 Z"/><use x="88" y="475.7" xlink:href="#tool-D10-pad-1001"/><path d="M 61 438.5 L 67.9 517 L 115 512.9 L 108.1 434.4 L 61 438.5 L 61 438.5 Z"/><use x="88" y="1770.7" xlink:href="#tool-D10-pad-1001"/><path d="M 108.1 1812 L 115 1733.5 L 67.9 1729.4 L 61 1807.9 L 108.1 1812 L 108.1 1812 Z"/><use x="929" y="1275.1" xlink:href="#tool-D12-pad-1003"/><use x="919.2" y="629.3" xlink:href="#tool-D13-pad-1004"/><use x="909.3" y="1554.5" xlink:href="#tool-D14-pad-1005"/><use x="752.8" y="1142.7" xlink:href="#tool-D15-pad-1006"/><use x="133.2" y="1142.7" xlink:href="#tool-D15-pad-1006"/><use x="443" y="1142.7" xlink:href="#tool-D16-pad-1007"/><use x="1212.4" y="1088.4" xlink:href="#tool-D17-pad-1008"/><use x="1175" y="1088.4" xlink:href="#tool-D17-pad-1008"/><use x="1137.6" y="1088.4" xlink:href="#tool-D17-pad-1008"/><use x="1137.6" y="1175" xlink:href="#tool-D17-pad-1008"/><use x="1212.4" y="1175" xlink:href="#tool-D17-pad-1008"/><use x="1175" y="1175" xlink:href="#tool-D17-pad-1008"/><use x="1033.3" y="113.2" xlink:href="#tool-D18-pad-1009"/><use x="1033.3" y="264.7" xlink:href="#tool-D18-pad-1009"/><use x="879.7" y="264.7" xlink:href="#tool-D18-pad-1009"/><use x="879.7" y="113.2" xlink:href="#tool-D18-pad-1009"/><use x="1065" y="1171.7" xlink:href="#tool-D19-pad-1010"/><use x="1070" y="1001.7" xlink:href="#tool-D19-pad-1010"/><use x="417.5" y="824.2" xlink:href="#tool-D19-pad-1010"/><use x="587.5" y="824.2" xlink:href="#tool-D19-pad-1010"/><use x="18" y="1123.7" xlink:href="#tool-D19-pad-1010"/><use x="1307.5" y="1106.7" xlink:href="#tool-D19-pad-1010"/><use x="1340" y="1149.2" xlink:href="#tool-D19-pad-1010"/><use x="1597.5" y="1399.2" xlink:href="#tool-D19-pad-1010"/><use x="51" y="1123.7" xlink:href="#tool-D19-pad-1010"/><use x="1311" y="1278.7" xlink:href="#tool-D19-pad-1010"/><use x="707.5" y="1241.7" xlink:href="#tool-D19-pad-1010"/><use x="712.5" y="1004.2" xlink:href="#tool-D19-pad-1010"/><use x="1407.5" y="1054.2" xlink:href="#tool-D19-pad-1010"/><use x="1310" y="969.2" xlink:href="#tool-D19-pad-1010"/><use x="1407.5" y="1191.7" xlink:href="#tool-D19-pad-1010"/><use x="1297.5" y="1226.7" xlink:href="#tool-D19-pad-1010"/><use x="1100" y="1231.7" xlink:href="#tool-D19-pad-1010"/><use x="1092.5" y="1124.2" xlink:href="#tool-D19-pad-1010"/><use x="1296" y="1021.7" xlink:href="#tool-D19-pad-1010"/><use x="1597.8" y="851.9" xlink:href="#tool-D19-pad-1010"/><use x="1260" y="1091.7" xlink:href="#tool-D19-pad-1010"/><use x="1260" y="1156.7" xlink:href="#tool-D19-pad-1010"/><use x="1070" y="1059.2" xlink:href="#tool-D19-pad-1010"/><use x="1067.5" y="1246.7" xlink:href="#tool-D19-pad-1010"/><path stroke-width="10" fill="none" d="M 752.8 1142.7 L 1036 1142.7 M 1036 1142.7 L 1065 1171.7 M 1065 1171.7 L 1117 1139.2 M 1175 1175 L 1167.5 1139.2 M 1167.5 1139.2 L 1117 1139.2 M 1070 1001.7 L 1152 811.7 M 1152 811.7 L 1239 797.7 M 1239 797.7 L 1310 712.7 M 1310 712.7 L 1320 670.7 M 1320 670.7 L 1305 643.7 M 1305 643.7 L 1328 596.7 M 1328 596.7 L 1430 492.7 M 1065 1171.7 L 1064.9 1171.7 M 879.7 264.7 L 879.7 340.5 M 879.7 340.5 L 846 374.2 M 443 1142.7 L 548 1037.7 M 443 1142.7 L 417.5 824.2 M 548 1037.7 L 841 1037.7 M 587.5 824.2 L 587.5 824.2 M 587.5 824.2 L 840.6 974.5 M 1165 1051.7 L 1110 1051.7 M 1110 1051.7 L 1102.5 1099.2 M 1102.5 1099.2 L 872.5 1101.7 M 872.5 1101.7 L 840 1037.7 M 1165 1051.7 L 1175 1088.4 M 726.2 629.9 L 846 374.2 M 840 976.1 L 872.5 919.2 M 872.5 919.2 L 726.2 629.9 M 726.2 629.9 L 585 591.7 M 585 591.7 L 455 421.7 M 455 421.7 L 477.1 330.5 M 18 1123.7 L 62.5 1021.7"/><path stroke-width="6" fill="none" d="M 1240 1116.7 L 1277.5 1116.7 M 1212.4 1088.4 L 1240 1116.7 M 1287.5 1106.7 L 1277.5 1116.7"/><path stroke-width="10" fill="none" d="M 1407.5 1149.2 L 1440 1181.7 M 1440 1211.7 L 1547.5 1296.7 M 1440 1181.7 L 1440 1211.7 M 1596.5 1399.2 L 1597.5 1399.2 M 1577.5 1371.7 L 1596.5 1399.2 M 1547.5 1296.7 L 1577.5 1371.7 M 1340 1149.2 L 1407.5 1149.2"/><path stroke-width="6" fill="none" d="M 1307.5 1106.7 L 1287.5 1106.7"/><path stroke-width="10" fill="none" d="M 1212.4 1088.4 L 1212.4 1049.1 M 1212.4 1049.1 L 1199.7 1036.4 M 882.5 1081.7 L 846.2 1007.9 M 395 771.7 L 362.5 810.1 M 362.5 810.1 L 362.5 806.7 M 457.3 787.1 L 846.2 1007.9 M 457.3 787.1 L 395 771.7"/><path stroke-width="6" fill="none" d="M 1097.5 1036.7 L 1090 1081.7 M 1199.7 1036.4 L 1097.5 1036.7 M 1090 1081.7 L 884.9 1083.8 M 1200 1036.4 L 1199.7 1036.4"/><path stroke-width="10" fill="none" d="M 362.5 806.7 L 362.5 854.2 M 362.5 806.7 L 288 773.7 M 110 580.7 L 84 476.7 M 162 671.7 L 110 580.7 M 146.2 702.3 L 162 671.7 M 288 773.7 L 146.2 702.3 M 271 898.7 L 362.5 854.2 M 62.5 1021.7 L 271 898.7 M 50 1094.2 L 77.5 1034.2 M 51 1123.7 L 50 1094.2 M 1329 1259.7 L 1311 1278.7 M 1330 1184.2 L 1329 1259.7 M 280 914.2 L 77.5 1034.2 M 445.2 803.6 L 406.9 793.7 M 712.5 1004.2 L 714.2 964.2 M 714.2 964.2 L 445.2 803.6 M 812.5 1241.7 L 892.5 1161.7 M 1113.4 1199.2 L 1137.6 1175 M 1052.5 1199.2 L 1113.4 1199.2 M 1015 1161.7 L 1052.5 1199.2 M 892.5 1161.7 L 1015 1161.7 M 812.5 1241.7 L 707.5 1241.7 M 382.5 822.6 L 382.5 864.1 M 406.9 793.7 L 382.5 822.6 M 382.5 864.1 L 280 914.2 M 1407.5 1054.2 L 1362.5 1054.4 M 1310 969.2 L 1360.7 1051.5 M 1137.6 1175 L 1144.8 1211.7 M 1245 1211.7 L 1302.5 1184.2 M 1144.8 1211.7 L 1245 1211.7 M 1407.5 1191.7 L 1408.5 1191.7 M 1302.5 1184.2 L 1330 1184.2 M 1408.5 1191.7 L 1330 1184.2 M 1085 1216.7 L 1100 1231.7 M 1045 1216.7 L 1085 1216.7 M 1100 1231.7 L 1090 1216.7 M 1297.5 1226.7 L 1245 1231.7 M 1245 1231.7 L 1100 1231.7 M 1135 1121.7 L 1092.5 1124.2 M 1185 1121.7 L 1195 1131.7 M 1135 1121.5 L 1185 1121.7 M 1195 1131.7 L 1317.5 1131.7 M 1350 1094.2 L 1350 1099.2 M 1317.5 1131.7 L 1350 1099.2 M 1296 1021.7 L 1350 1094.2 M 1135 1121.5 L 1137.6 1088.4 M 726.8 1352.4 L 900 1179.2 M 82 1774.7 L 105 1671.7 M 165 1571.7 L 105 1671.7 M 155 1541.7 L 165 1571.7 M 355 1461.7 L 155 1541.7 M 615.4 1427.7 L 355 1461.7 M 726.8 1352.4 L 615.4 1427.7 M 1007.5 1179.2 L 1045 1216.7 M 900 1179.2 L 1007.5 1179.2 M 1410 1094.2 L 1350 1094.2 M 1437.5 1066.7 L 1410 1094.2 M 1437.5 1037.3 L 1437.5 1066.7 M 1553.8 943.1 L 1437.5 1037.3 M 1597.8 851.9 L 1553.8 943.1 M 861.4 385.5 L 982.2 264.7 M 890.3 916.9 L 745.9 627.9 M 745.9 627.9 L 861.4 385.5 M 982.2 264.7 L 1033.3 264.7 M 890.3 916.9 L 890.3 971.7 M 977.8 1059.2 L 1070 1059.2 M 890.3 971.7 L 977.8 1059.2 M 891.1 918.5 L 890.3 916.9 M 1260 1091.7 L 1260 1056.7"/><path stroke-width="6" fill="none" d="M 1081.7 1023.9 L 1225.1 1021.8 M 1070 1059.2 L 1075 1041.7 M 1081.7 1023.9 L 1075 1041.7"/><path stroke-width="10" fill="none" d="M 1260 1056.7 L 1225.1 1021.8 M 1230.7 1156.7 L 1260 1156.7 M 1212.4 1175 L 1230.7 1156.7 M 1312.5 1569.2 L 1115 1421.7 M 1305 1591.7 L 1312.5 1569.2 M 1315 1641.7 L 1305 1591.7 M 1430 1758.7 L 1315 1641.7 M 1067.5 1331.7 L 1115 1421.7 M 1067.5 1246.7 L 1067.5 1331.7"/></g><mask id="pcb_bottom_mech-mask" fill="#fff" stroke="#fff" fill-rule="evenodd"><path stroke-width="0" d="M 1038.6 901 L 1045.6 891.5 L 1059 869.5 L 1065 858.3 L 1070.2 847.6 L 1074.7 838.1 L 1078.4 830.1 L 1081.4 823.7 L 1084.2 818.7 L 1087.3 814.6 L 1091.6 810.5 L 1097.4 805.8 L 1105.3 800 L 1115.3 792.9 L 1127.5 784.6 L 1141.7 775.1 L 1157.6 764.5 L 1174.8 753.4 L 1192.7 741.9 L 1228.3 719.7 L 1244.5 709.5 L 1258.8 700.5 L 1265 696.4 L 1270.3 692.6 L 1274.8 689.2 L 1278.4 686 L 1281 683.1 L 1282.8 680.5 L 1284.4 676.2 L 1284.9 670.1 L 1284.6 667.5 L 1282.8 664.3 L 1279.3 660.2 L 1275.1 655.7 L 1271.7 651.2 L 1270.2 646.7 L 1270.8 641.8 L 1272.8 635.7 L 1275.9 628.3 L 1279.8 619.6 L 1289 600 L 1299.7 579.9 L 1306 570.2 L 1313.4 560.4 L 1322.1 550.3 L 1332.3 539.5 L 1343.9 528 L 1356.6 515.9 L 1383.6 491.2 L 1397 479.4 L 1409.6 468.7 L 1421.1 459.5 L 1431.3 452.4 L 1439.9 447.6 L 1447.1 445.4 L 1453.4 446 L 1459.3 449.2 L 1465.3 454.6 L 1471.3 461.5 L 1476.9 468.9 L 1481.3 475.9 L 1483.9 481.9 L 1484.3 486.5 L 1482.3 490 L 1478.2 493 L 1472.4 496.3 L 1465.2 500.3 L 1456.8 505.2 L 1447.4 511.3 L 1437.1 518.7 L 1426.3 527.4 L 1415 537.1 L 1403.4 547.8 L 1380.4 571.1 L 1359.2 594.9 L 1350 606.2 L 1342.2 616.7 L 1335.9 626.2 L 1331.2 634.5 L 1328.4 641.4 L 1327.3 646.9 L 1327.8 651.1 L 1329.4 654.2 L 1333.9 658.2 L 1335.4 660.5 L 1335.9 664.1 L 1335.2 670.1 L 1333.6 678.5 L 1329.4 699.4 L 1327.6 709.4 L 1326.3 717.7 L 1325.2 723.8 L 1323.6 728.6 L 1320.4 733.7 L 1317.9 736.9 L 1314.7 740.7 L 1311 745 L 1306.8 749.9 L 1297 761.3 L 1275.8 786.8 L 1266.5 798.7 L 1262.5 804 L 1259.1 808.7 L 1256.2 812.6 L 1253.9 815.9 L 1252.1 818.3 L 1250.6 820.1 L 1248 821.8 L 1244.2 822.4 L 1238.1 822.9 L 1229.4 823.7 L 1208 826.3 L 1197.7 827.7 L 1189 829.2 L 1182.2 831.3 L 1176.5 834.8 L 1171.1 840.7 L 1165.1 849.2 L 1158.4 860 L 1151 872.4 L 1135.8 898.1 L 1129 909.7 L 1123.7 919.4 L 1120.4 927.1 L 1119.6 933.4 L 1121.7 939.2 L 1126.6 945.5 L 1133.8 952.7 L 1142.4 960.5 L 1151.7 968.2 L 1160.8 975.1 L 1169.1 980.4 L 1176.2 983.7 L 1182.5 984.8 L 1188.8 984.2 L 1195.7 982.7 L 1203.3 980.6 L 1211 978.4 L 1217.9 975.9 L 1223.2 973.3 L 1227.1 970.4 L 1233 962.7 L 1236.6 958.2 L 1241.3 953.6 L 1247.1 949.4 L 1254.2 946 L 1262.6 943.7 L 1272.5 942.5 L 1283.9 942.4 L 1296.5 943.6 L 1309.8 945.9 L 1323.4 949.4 L 1336.6 954 L 1348.8 959.7 L 1359.4 966.2 L 1368 973.6 L 1374.3 981.6 L 1378.1 990.1 L 1379.6 998.9 L 1379.3 1007.6 L 1375.9 1023.9 L 1374.4 1030.7 L 1374.2 1035.8 L 1374.9 1037.6 L 1376.2 1038.8 L 1378.2 1039.2 L 1380.9 1038.8 L 1384.4 1037.6 L 1388.7 1035.5 L 1393.8 1032.6 L 1399.6 1028.9 L 1406 1024.5 L 1412.9 1019.4 L 1428.1 1007.7 L 1460.5 981.6 L 1475.7 969.1 L 1489.2 958.1 L 1495.1 953.3 L 1500.3 949.1 L 1504.9 945.4 L 1508.8 942.3 L 1514.5 937.4 L 1518.2 933.6 L 1520.8 929.1 L 1523.7 922.5 L 1527.3 913.1 L 1531.7 901.5 L 1536.4 889.1 L 1540.7 877.4 L 1544.2 867.6 L 1545.4 863.8 L 1546.3 860.9 L 1547.6 857 L 1549 854.3 L 1552.1 850.7 L 1554.5 848.1 L 1557.5 844.8 L 1561.1 840.7 L 1565.2 836 L 1574.4 825.1 L 1584.1 813.2 L 1593.2 801.7 L 1600.7 791.9 L 1603.7 788.1 L 1606.2 784.9 L 1610.3 781 L 1614.3 779.4 L 1619.8 779 L 1627.4 778.8 L 1636 778.3 L 1643.9 777.8 L 1649.4 777.9 L 1652.8 779.3 L 1655.4 782.8 L 1658.7 788.5 L 1663.3 796.1 L 1668.5 804.5 L 1673.1 812.6 L 1675.6 819.4 L 1675.9 822.2 L 1675.5 824.5 L 1672.9 828 L 1668.6 830.7 L 1663.3 833.5 L 1657.3 837.1 L 1650.8 841.8 L 1643.9 848 L 1636.4 855.7 L 1628.6 865 L 1620.6 875.4 L 1613.1 886.6 L 1606.5 898 L 1601 909.1 L 1596.6 919.5 L 1593.2 929 L 1590.4 937.3 L 1587.9 944.4 L 1585.1 950.6 L 1581.5 956 L 1576.7 961.5 L 1570.1 967.6 L 1561.7 974.9 L 1551.7 983.5 L 1540.4 993.1 L 1516.6 1013.3 L 1505.5 1022.8 L 1495.8 1031.1 L 1488 1037.8 L 1482.4 1042.8 L 1479 1046.5 L 1477.3 1049.5 L 1476.8 1052.6 L 1477 1056.7 L 1477.5 1062.3 L 1478 1069.9 L 1478.4 1079.7 L 1478.5 1091.9 L 1478.3 1106.5 L 1477.7 1123.7 L 1478.3 1140.9 L 1478.5 1155.5 L 1478.4 1167.7 L 1478 1177.5 L 1477.5 1185.1 L 1477 1190.7 L 1476.8 1194.8 L 1477.3 1197.9 L 1479 1200.9 L 1482.4 1204.6 L 1488 1209.6 L 1495.8 1216.3 L 1505.5 1224.6 L 1516.6 1234.1 L 1540.4 1254.3 L 1551.7 1263.9 L 1561.7 1272.5 L 1570.1 1279.8 L 1576.7 1285.9 L 1581.5 1291.4 L 1585.1 1296.8 L 1587.9 1303 L 1590.4 1310.1 L 1593.2 1318.4 L 1596.6 1327.9 L 1601 1338.3 L 1606.5 1349.4 L 1613.1 1360.8 L 1620.6 1372 L 1628.6 1382.4 L 1636.4 1391.7 L 1643.9 1399.4 L 1650.8 1405.6 L 1657.3 1410.3 L 1663.3 1413.9 L 1668.6 1416.7 L 1672.9 1419.4 L 1675.5 1422.9 L 1675.9 1425.2 L 1675.6 1428 L 1673.1 1434.8 L 1668.5 1442.9 L 1663.3 1451.3 L 1658.7 1458.9 L 1655.4 1464.6 L 1652.8 1468.1 L 1649.4 1469.5 L 1643.9 1469.6 L 1636 1469.1 L 1627.4 1468.6 L 1619.8 1468.4 L 1614.3 1468 L 1610.3 1466.4 L 1606.2 1462.5 L 1603.7 1459.3 L 1600.7 1455.5 L 1593.2 1445.7 L 1584.1 1434.2 L 1574.4 1422.3 L 1565.2 1411.4 L 1561.1 1406.7 L 1557.5 1402.6 L 1554.5 1399.3 L 1552.1 1396.7 L 1549 1393.1 L 1547.6 1390.4 L 1546.3 1386.5 L 1545.4 1383.6 L 1544.2 1379.8 L 1540.7 1370 L 1536.4 1358.3 L 1531.7 1345.9 L 1527.3 1334.3 L 1523.7 1324.9 L 1520.8 1318.3 L 1518.2 1313.8 L 1514.5 1310 L 1508.8 1305.1 L 1504.9 1302 L 1500.3 1298.3 L 1495.1 1294.1 L 1489.2 1289.3 L 1475.7 1278.3 L 1460.5 1265.8 L 1428.1 1239.7 L 1412.9 1228 L 1406 1222.9 L 1399.6 1218.5 L 1393.8 1214.8 L 1388.7 1211.9 L 1384.4 1209.8 L 1380.9 1208.6 L 1378.2 1208.2 L 1376.2 1208.6 L 1374.9 1209.8 L 1374.2 1211.6 L 1374.4 1216.7 L 1375.9 1223.5 L 1379.3 1239.8 L 1379.6 1248.5 L 1378.1 1257.3 L 1374.3 1265.8 L 1368 1273.8 L 1359.4 1281.2 L 1348.8 1287.7 L 1336.6 1293.4 L 1323.4 1298 L 1309.8 1301.5 L 1296.5 1303.8 L 1283.9 1305 L 1272.5 1304.9 L 1262.6 1303.7 L 1254.2 1301.4 L 1247.1 1298 L 1241.3 1293.8 L 1236.6 1289.2 L 1233 1284.7 L 1227.1 1277 L 1223.2 1274.1 L 1217.9 1271.5 L 1211 1269 L 1203.3 1266.8 L 1195.7 1264.7 L 1188.8 1263.2 L 1182.5 1262.6 L 1176.2 1263.7 L 1169.1 1267 L 1160.8 1272.3 L 1151.7 1279.2 L 1142.4 1286.9 L 1133.8 1294.7 L 1126.6 1301.9 L 1121.7 1308.2 L 1119.6 1314 L 1120.4 1320.3 L 1123.7 1328 L 1129 1337.7 L 1135.8 1349.3 L 1151 1375 L 1158.4 1387.4 L 1165.1 1398.2 L 1171.1 1406.7 L 1176.5 1412.6 L 1182.2 1416.1 L 1189 1418.2 L 1197.7 1419.7 L 1208 1421.1 L 1229.4 1423.7 L 1238.1 1424.5 L 1244.2 1425 L 1248 1425.6 L 1250.6 1427.3 L 1252.1 1429.1 L 1253.9 1431.5 L 1256.2 1434.8 L 1259.1 1438.7 L 1262.5 1443.4 L 1266.5 1448.7 L 1275.8 1460.6 L 1297 1486.1 L 1306.8 1497.5 L 1311 1502.4 L 1314.7 1506.7 L 1317.9 1510.5 L 1320.4 1513.7 L 1323.6 1518.8 L 1325.2 1523.6 L 1326.3 1529.7 L 1327.6 1538 L 1329.4 1548 L 1333.6 1568.9 L 1335.2 1577.3 L 1335.9 1583.3 L 1335.4 1586.9 L 1333.9 1589.2 L 1329.4 1593.2 L 1327.8 1596.3 L 1327.3 1600.5 L 1328.4 1606 L 1331.2 1612.9 L 1335.9 1621.2 L 1342.2 1630.7 L 1350 1641.2 L 1359.2 1652.5 L 1380.4 1676.3 L 1403.4 1699.6 L 1415 1710.3 L 1426.3 1720 L 1437.1 1728.7 L 1447.4 1736.1 L 1456.8 1742.2 L 1465.2 1747.1 L 1472.4 1751.1 L 1478.2 1754.4 L 1482.3 1757.4 L 1484.3 1760.9 L 1483.9 1765.5 L 1481.3 1771.5 L 1476.9 1778.5 L 1471.3 1785.9 L 1465.3 1792.8 L 1459.3 1798.2 L 1453.4 1801.4 L 1447.1 1802 L 1439.9 1799.8 L 1431.3 1795 L 1421.1 1787.9 L 1409.6 1778.7 L 1397 1768 L 1383.6 1756.2 L 1356.6 1731.5 L 1343.9 1719.4 L 1332.3 1707.9 L 1322.1 1697.1 L 1313.4 1687 L 1306 1677.2 L 1299.7 1667.5 L 1289 1647.4 L 1279.8 1627.8 L 1275.9 1619.1 L 1272.8 1611.7 L 1270.8 1605.6 L 1270.2 1600.7 L 1271.7 1596.2 L 1275.1 1591.7 L 1279.3 1587.2 L 1282.8 1583.1 L 1284.6 1579.9 L 1284.9 1577.3 L 1284.4 1571.2 L 1282.8 1566.9 L 1281 1564.3 L 1278.4 1561.4 L 1274.8 1558.2 L 1270.3 1554.8 L 1265 1551 L 1258.8 1546.9 L 1244.5 1537.9 L 1228.3 1527.7 L 1192.7 1505.5 L 1174.8 1494 L 1157.6 1482.9 L 1141.7 1472.3 L 1127.5 1462.8 L 1115.3 1454.5 L 1105.3 1447.4 L 1097.4 1441.6 L 1091.6 1436.9 L 1087.3 1432.8 L 1084.2 1428.7 L 1081.4 1423.7 L 1078.4 1417.3 L 1074.7 1409.3 L 1070.2 1399.8 L 1065 1389.1 L 1059 1377.9 L 1045.6 1355.9 L 1038.6 1346.4 L 1031.7 1338.3 L 1025.4 1333.3 L 1019.9 1330.2 L 1015.1 1329 L 1011.1 1329.7 L 1007.8 1332.4 L 1005.3 1336.9 L 1003.5 1343.3 L 1002.3 1351.5 L 1001.9 1361.4 L 1002.1 1373 L 1002.9 1386.1 L 1004.3 1400.6 L 1006.2 1416.5 L 1008.7 1433.5 L 1011.5 1451.5 L 1014.8 1470.4 L 1022.2 1510.3 L 1030.6 1551.9 L 1048.4 1635.7 L 1057 1675.9 L 1065.1 1713.9 L 1072.3 1749.2 L 1078.6 1781.8 L 1083.8 1811.9 L 1088.2 1840.2 L 1095.3 1896.1 L 1098 1925.4 L 1100 1956.1 L 1100.9 1987.9 L 1100.3 2020.4 L 1097.7 2052.9 L 1092.9 2084.7 L 1089.6 2100 L 1085.7 2114.9 L 1081.2 2129.1 L 1076 2142.6 L 1070.3 2155.4 L 1064.1 2167.3 L 1057.5 2178.3 L 1050.5 2188.3 L 1043.4 2197.4 L 1036.2 2205.6 L 1029 2212.8 L 1022 2219.2 L 1008.3 2229.5 L 995.3 2237 L 982.7 2242.2 L 970.3 2245.2 L 957.2 2245.5 L 950.3 2244.5 L 943.1 2242.7 L 935.6 2239.9 L 927.7 2236.1 L 911.1 2226.3 L 893.9 2214 L 876.7 2200 L 860 2185.2 L 844.2 2170.3 L 829.2 2155.2 L 814.7 2139.3 L 800.3 2122 L 785.7 2103.1 L 771.2 2082.3 L 757.1 2060.1 L 743.7 2037 L 731.9 2013.7 L 722.2 1991.4 L 718.5 1981 L 715.7 1971.4 L 714 1962.9 L 713.4 1955.6 L 713.9 1949.5 L 715.3 1944.6 L 719.2 1937 L 722 1929.8 L 722.2 1926 L 721.5 1921.8 L 718 1913.2 L 712.3 1904 L 705.2 1892.9 L 701.2 1886.1 L 697.2 1878.1 L 693 1868.9 L 688.9 1858.1 L 684.8 1845.9 L 681 1832.3 L 677.4 1817.7 L 674.3 1802.3 L 669.8 1771.4 L 668.5 1756.8 L 667.7 1743.3 L 667.4 1730.9 L 667.2 1719.8 L 667 1710 L 666.6 1701.5 L 665.8 1694.2 L 664.3 1688 L 662 1682.9 L 658.9 1678.8 L 654.8 1675.6 L 649.9 1673.4 L 644.4 1672.2 L 638.5 1672.2 L 632.4 1673.5 L 626.4 1676.1 L 620.5 1680 L 614.9 1685.1 L 609.5 1691.4 L 604.3 1698.6 L 594 1715 L 583.4 1732.8 L 571.9 1750.9 L 547.1 1785.7 L 535.2 1801.7 L 524.4 1815.4 L 519.6 1821.3 L 515.3 1826.3 L 508.3 1834.6 L 503.6 1841.8 L 502.2 1846.1 L 501.6 1851.5 L 501.5 1858.3 L 502.1 1866.6 L 503.3 1876.3 L 504.8 1887.2 L 508.7 1910.6 L 512.7 1933.6 L 514.2 1943.7 L 515.1 1952.5 L 515.1 1959.5 L 514.1 1964.7 L 511.8 1968.2 L 508 1970.1 L 502.7 1970.8 L 496.2 1970.7 L 481.5 1968.9 L 474.5 1967.8 L 468.3 1966.7 L 463.3 1965.6 L 459.6 1964 L 457 1961.4 L 455.1 1957.2 L 453.8 1951.3 L 452.7 1943.4 L 451.7 1933.6 L 450.5 1922.1 L 449.3 1909.3 L 447.9 1895.8 L 444.7 1868.3 L 443.1 1855.3 L 441.5 1843.5 L 440 1833.1 L 438.9 1824.4 L 438.2 1817.2 L 438 1811.5 L 438.3 1806.6 L 439.4 1802.2 L 441.2 1797.7 L 443.8 1792.6 L 447.2 1786.8 L 451.3 1779.9 L 456.2 1772.1 L 461.8 1763.3 L 468.1 1753.6 L 475 1743 L 490.5 1719.8 L 508.1 1695.3 L 527.3 1671 L 548.1 1648 L 570.8 1626.7 L 595.4 1607 L 621 1589.1 L 645.9 1573.4 L 657.5 1566.6 L 668.2 1560.6 L 677.7 1555.4 L 686 1551 L 692.8 1547.4 L 698.3 1544.5 L 702.3 1542.4 L 705.2 1540.7 L 708.7 1538 L 710.3 1536.4 L 712.6 1534 L 716 1530.8 L 720.7 1526.5 L 726.6 1521.1 L 733.7 1514.7 L 741.7 1507.5 L 750.2 1499.6 L 767.5 1482.7 L 775.6 1474.2 L 782.9 1466 L 789.3 1458.1 L 794.5 1450.9 L 798.9 1444.4 L 802.5 1438.6 L 808.8 1428.5 L 814.9 1419.4 L 821.4 1409.4 L 828.2 1397.3 L 835.3 1382.8 L 842.7 1367.2 L 849.6 1352.6 L 852.5 1345.9 L 854.6 1339.9 L 855.7 1334.5 L 855.6 1329.7 L 854.2 1325.8 L 851.4 1322.9 L 847.1 1321.2 L 841.6 1320.9 L 834.9 1321.9 L 827.2 1324.3 L 818.8 1328 L 809.8 1332.8 L 791.2 1344.5 L 773.2 1357.1 L 764.8 1363.1 L 757 1368.5 L 749.9 1373.1 L 743.4 1377.1 L 732.1 1383 L 722.2 1387.5 L 712.5 1392 L 702.1 1397.6 L 690.7 1404.8 L 678.3 1413.8 L 653.6 1433.6 L 643.2 1442 L 634.5 1448 L 626.1 1451.5 L 621.1 1452.7 L 615 1453.7 L 607.4 1454.8 L 598.1 1456.1 L 587 1457.7 L 574.1 1459.6 L 559.5 1461.8 L 543.3 1464.4 L 525.9 1467.3 L 507.4 1470.4 L 429.8 1484.3 L 411.1 1487.7 L 393.5 1491 L 376.9 1494.1 L 361.8 1497 L 348.1 1499.8 L 335.9 1502.4 L 325.2 1505 L 315.6 1507.6 L 298.7 1513.8 L 282.1 1522.4 L 264 1533.3 L 245.6 1544.7 L 237.1 1549.9 L 229.3 1554.5 L 222.6 1558.2 L 217.2 1561 L 213.1 1563.1 L 210.2 1564.7 L 208.1 1566.6 L 206.2 1569.3 L 204 1573.6 L 201.1 1580 L 197.3 1588.4 L 192.5 1598.9 L 186.7 1611.2 L 180.1 1624.8 L 165.6 1653.7 L 158.3 1667.9 L 151.3 1681.2 L 144.9 1693.1 L 139.5 1703.3 L 135.1 1711.6 L 131.8 1718 L 129.6 1722.8 L 128.2 1726.8 L 127.4 1730.8 L 126.6 1735.7 L 125.6 1742.2 L 124.4 1750.3 L 123 1759.8 L 121.5 1770.2 L 118.5 1791.2 L 117.3 1800.3 L 116.4 1807.6 L 115.5 1812.9 L 114.3 1816.2 L 112.2 1817.9 L 108.7 1818.7 L 103.5 1819 L 96.8 1819.3 L 80.8 1820.1 L 73 1820.4 L 66.3 1820.1 L 61.2 1819 L 57.9 1816.8 L 56.1 1813.4 L 55.4 1808.6 L 55.4 1802.5 L 55.5 1795.2 L 55.7 1777.8 L 56 1758.5 L 57 1739.5 L 58.1 1730.8 L 59.6 1722.9 L 61.5 1715.7 L 63.7 1709.3 L 68.2 1698.2 L 72.6 1688.1 L 77.1 1677.6 L 82.9 1665.3 L 90.5 1650.9 L 99.7 1634.4 L 109.2 1617.6 L 117.8 1602.3 L 121.7 1595.9 L 125.2 1590.6 L 128.3 1586.4 L 130.8 1583.2 L 132.8 1580.7 L 133.9 1578.5 L 134.1 1576.1 L 133.1 1572.6 L 131.1 1568 L 128.1 1562.1 L 121.2 1548.4 L 118.1 1541.8 L 116 1535.9 L 114.9 1531.1 L 115.1 1527.3 L 116.4 1524.3 L 118.9 1521.7 L 122.3 1519.3 L 126.7 1516.9 L 132 1514.1 L 138.1 1511 L 145 1507.6 L 152.8 1503.8 L 161.5 1499.7 L 171 1495.3 L 192.4 1486.2 L 216.3 1477 L 241.5 1468.1 L 267 1459.5 L 291.2 1451.2 L 302.5 1447.1 L 312.9 1443 L 322.3 1438.9 L 330.6 1434.8 L 337.6 1430.6 L 343.2 1426.3 L 347.2 1422 L 349.6 1417.6 L 350.3 1413.1 L 349.2 1408.5 L 346.3 1403.9 L 341.6 1399.4 L 335.1 1394.7 L 327 1390.1 L 317.4 1385.3 L 306.3 1380.5 L 294.1 1375.5 L 280.7 1370.3 L 251.5 1359.1 L 220.4 1346.6 L 188.8 1332.6 L 158.3 1317 L 129.9 1299.7 L 116.9 1290.7 L 104.6 1281.3 L 93.2 1271.9 L 82.5 1262.5 L 63.4 1244.1 L 47.1 1226.7 L 33.4 1210.2 L 22.2 1194.3 L 13.4 1178.3 L 7.1 1161.7 L 3.3 1143.6 L 2.3 1133.9 L 2 1123.7 L 2.3 1113.5 L 3.3 1103.8 L 7.1 1085.7 L 13.4 1069.1 L 22.2 1053.1 L 33.4 1037.2 L 47.1 1020.7 L 63.4 1003.3 L 82.5 984.9 L 93.2 975.5 L 104.6 966.1 L 116.9 956.7 L 129.9 947.7 L 158.3 930.4 L 188.8 914.8 L 220.4 900.8 L 251.5 888.3 L 280.7 877.1 L 294.1 871.9 L 306.3 866.9 L 317.4 862.1 L 327 857.3 L 335.1 852.7 L 341.6 848 L 346.3 843.5 L 349.2 838.9 L 350.3 834.3 L 349.6 829.8 L 347.2 825.4 L 343.2 821.1 L 337.6 816.8 L 330.6 812.6 L 322.3 808.5 L 312.9 804.4 L 302.5 800.3 L 291.2 796.2 L 267 787.9 L 241.5 779.3 L 216.3 770.4 L 192.4 761.2 L 171 752.1 L 161.5 747.7 L 152.8 743.6 L 145 739.8 L 138.1 736.4 L 132 733.3 L 126.7 730.5 L 122.3 728.1 L 118.9 725.7 L 116.4 723.1 L 115.1 720.1 L 114.9 716.3 L 116 711.5 L 118.1 705.6 L 121.2 699 L 128.1 685.3 L 131.1 679.4 L 133.1 674.8 L 134.1 671.3 L 133.9 668.9 L 132.8 666.7 L 130.8 664.2 L 128.3 661 L 125.2 656.8 L 121.7 651.5 L 117.8 645.1 L 109.2 629.8 L 99.7 613 L 90.5 596.5 L 82.9 582.1 L 77.1 569.8 L 72.6 559.3 L 68.2 549.2 L 63.7 538.1 L 61.5 531.7 L 59.6 524.5 L 58.1 516.6 L 57 507.9 L 56 488.9 L 55.7 469.6 L 55.5 452.2 L 55.4 444.9 L 55.4 438.8 L 56.1 434 L 57.9 430.6 L 61.2 428.4 L 66.3 427.3 L 73 427 L 80.8 427.3 L 96.8 428.1 L 103.5 428.4 L 108.7 428.7 L 112.2 429.5 L 114.3 431.2 L 115.5 434.5 L 116.4 439.8 L 117.3 447.1 L 118.5 456.2 L 121.5 477.2 L 123 487.6 L 124.4 497.1 L 125.6 505.2 L 126.6 511.7 L 127.4 516.6 L 128.2 520.6 L 129.6 524.6 L 131.8 529.4 L 135.1 535.8 L 139.5 544.1 L 144.9 554.3 L 151.3 566.2 L 158.3 579.5 L 165.6 593.7 L 180.1 622.6 L 186.7 636.2 L 192.5 648.5 L 197.3 659 L 201.1 667.4 L 204 673.8 L 206.2 678.1 L 208.1 680.8 L 210.2 682.7 L 213.1 684.3 L 217.2 686.4 L 222.6 689.2 L 229.3 692.9 L 237.1 697.5 L 245.6 702.7 L 264 714.1 L 282.1 725 L 298.7 733.6 L 315.6 739.8 L 325.2 742.4 L 335.9 745 L 348.1 747.6 L 361.8 750.4 L 376.9 753.3 L 393.5 756.4 L 411.1 759.7 L 429.8 763.1 L 507.4 777 L 525.9 780.1 L 543.3 783 L 559.5 785.6 L 574.1 787.8 L 587 789.7 L 598.1 791.3 L 607.4 792.6 L 615 793.7 L 621.1 794.7 L 626.1 795.9 L 634.5 799.4 L 643.2 805.4 L 653.6 813.8 L 678.3 833.6 L 690.7 842.6 L 702.1 849.8 L 712.5 855.4 L 722.2 859.9 L 732.1 864.4 L 743.4 870.3 L 749.9 874.3 L 757 878.9 L 764.8 884.3 L 773.2 890.3 L 791.2 902.9 L 809.8 914.6 L 818.8 919.4 L 827.2 923.1 L 834.9 925.5 L 841.6 926.5 L 847.1 926.2 L 851.4 924.5 L 854.2 921.6 L 855.6 917.7 L 855.7 912.9 L 854.6 907.5 L 852.5 901.5 L 849.6 894.8 L 842.7 880.2 L 835.3 864.6 L 828.2 850.1 L 821.4 838 L 814.9 828 L 808.8 818.9 L 802.5 808.8 L 798.9 803 L 794.5 796.5 L 789.3 789.3 L 782.9 781.4 L 775.6 773.2 L 767.5 764.7 L 750.2 747.8 L 741.7 739.9 L 733.7 732.7 L 726.6 726.3 L 720.7 720.9 L 716 716.6 L 712.6 713.4 L 710.3 711 L 708.7 709.4 L 705.2 706.7 L 702.3 705 L 698.3 702.9 L 692.8 700 L 686 696.4 L 677.7 692 L 668.2 686.8 L 657.5 680.8 L 645.9 674 L 621 658.3 L 595.4 640.4 L 570.8 620.7 L 548.1 599.4 L 527.3 576.4 L 508.1 552.1 L 490.5 527.6 L 475 504.4 L 468.1 493.8 L 461.8 484.1 L 456.2 475.3 L 451.3 467.5 L 447.2 460.6 L 443.8 454.8 L 441.2 449.7 L 439.4 445.2 L 438.3 440.8 L 438 435.9 L 438.2 430.2 L 438.9 423 L 440 414.3 L 441.5 403.9 L 443.1 392.1 L 444.7 379.1 L 447.9 351.6 L 449.3 338.1 L 450.5 325.3 L 451.7 313.8 L 452.7 304 L 453.8 296.1 L 455.1 290.2 L 457 286 L 459.6 283.4 L 463.3 281.8 L 468.3 280.7 L 474.5 279.6 L 481.5 278.5 L 496.2 276.7 L 502.7 276.6 L 508 277.3 L 511.8 279.2 L 514.1 282.7 L 515.1 287.9 L 515.1 294.9 L 514.2 303.7 L 512.7 313.8 L 508.7 336.8 L 504.8 360.2 L 503.3 371.1 L 502.1 380.8 L 501.5 389.1 L 501.6 395.9 L 502.2 401.3 L 503.6 405.6 L 508.3 412.8 L 515.3 421.1 L 519.6 426.1 L 524.4 432 L 535.2 445.7 L 547.1 461.7 L 571.9 496.5 L 583.4 514.6 L 594 532.4 L 604.3 548.8 L 609.5 556 L 614.9 562.3 L 620.5 567.4 L 626.4 571.3 L 632.4 573.9 L 638.5 575.2 L 644.4 575.2 L 649.9 574 L 654.8 571.8 L 658.9 568.6 L 662 564.5 L 664.3 559.4 L 665.8 553.2 L 666.6 545.9 L 667 537.4 L 667.2 527.6 L 667.4 516.5 L 667.7 504.1 L 668.5 490.6 L 669.8 476 L 674.3 445.1 L 677.4 429.7 L 681 415.1 L 684.8 401.5 L 688.9 389.3 L 693 378.5 L 697.2 369.3 L 701.2 361.3 L 705.2 354.5 L 712.3 343.4 L 718 334.2 L 721.5 325.6 L 722.2 321.4 L 722 317.6 L 719.2 310.4 L 715.3 302.8 L 713.9 297.9 L 713.4 291.8 L 714 284.5 L 715.7 276 L 718.5 266.4 L 722.2 256 L 731.9 233.7 L 743.7 210.4 L 757.1 187.3 L 771.2 165.1 L 785.7 144.3 L 800.3 125.4 L 814.7 108.1 L 829.2 92.2 L 844.2 77.1 L 860 62.2 L 876.7 47.4 L 893.9 33.4 L 911.1 21.1 L 927.7 11.3 L 935.6 7.5 L 943.1 4.7 L 950.3 2.9 L 957.2 1.9 L 970.3 2.2 L 982.7 5.2 L 995.3 10.4 L 1008.3 17.9 L 1022 28.2 L 1029 34.6 L 1036.2 41.8 L 1043.4 50 L 1050.5 59.1 L 1057.5 69.1 L 1064.1 80.1 L 1070.3 92 L 1076 104.8 L 1081.2 118.3 L 1085.7 132.5 L 1089.6 147.4 L 1092.9 162.7 L 1097.7 194.5 L 1100.3 227 L 1100.9 259.5 L 1100 291.3 L 1098 322 L 1095.3 351.3 L 1088.2 407.2 L 1083.8 435.5 L 1078.6 465.6 L 1072.3 498.2 L 1065.1 533.5 L 1057 571.5 L 1048.4 611.7 L 1030.6 695.5 L 1022.2 737.1 L 1014.8 777 L 1011.5 795.9 L 1008.7 813.9 L 1006.2 830.9 L 1004.3 846.8 L 1002.9 861.3 L 1002.1 874.4 L 1001.9 886 L 1002.3 895.9 L 1003.5 904.1 L 1005.3 910.5 L 1007.8 915 L 1011.1 917.7 L 1015.1 918.4 L 1019.9 917.2 L 1025.4 914.1 L 1031.7 909.1 Z"/><g id="pcb_bottom-drl" fill="#000" stroke="#000"><use x="18" y="1123.7" xlink:href="#tool-T10-pad-1000"/><use x="51" y="1123.7" xlink:href="#tool-T10-pad-1000"/><use x="417.5" y="824.2" xlink:href="#tool-T10-pad-1000"/><use x="587.5" y="824.2" xlink:href="#tool-T10-pad-1000"/><use x="707.5" y="1241.7" xlink:href="#tool-T10-pad-1000"/><use x="712.5" y="1004.2" xlink:href="#tool-T10-pad-1000"/><use x="1065" y="1171.7" xlink:href="#tool-T10-pad-1000"/><use x="1067.5" y="1246.7" xlink:href="#tool-T10-pad-1000"/><use x="1070" y="1059.2" xlink:href="#tool-T10-pad-1000"/><use x="1070" y="1001.7" xlink:href="#tool-T10-pad-1000"/><use x="1092.5" y="1124.2" xlink:href="#tool-T10-pad-1000"/><use x="1100" y="1231.7" xlink:href="#tool-T10-pad-1000"/><use x="1260" y="1156.7" xlink:href="#tool-T10-pad-1000"/><use x="1260" y="1091.7" xlink:href="#tool-T10-pad-1000"/><use x="1296" y="1021.7" xlink:href="#tool-T10-pad-1000"/><use x="1297.5" y="1226.7" xlink:href="#tool-T10-pad-1000"/><use x="1307.5" y="1106.7" xlink:href="#tool-T10-pad-1000"/><use x="1310" y="969.2" xlink:href="#tool-T10-pad-1000"/><use x="1311" y="1278.7" xlink:href="#tool-T10-pad-1000"/><use x="1340" y="1149.2" xlink:href="#tool-T10-pad-1000"/><use x="1407.5" y="1191.7" xlink:href="#tool-T10-pad-1000"/><use x="1407.5" y="1054.2" xlink:href="#tool-T10-pad-1000"/><use x="1597.5" y="1399.2" xlink:href="#tool-T10-pad-1000"/><use x="1597.8" y="851.9" xlink:href="#tool-T10-pad-1000"/></g></mask></defs><g mask="url(#pcb_bottom_mech-mask)" transform="translate(1677.9,2247.4) scale(-1,-1)"><rect x="2" y="1.9" width="1673.9" height="2243.6" fill="currentColor" class="pcb_board-fr4"/><use class="pcb_board-cu" xlink:href="#pcb_bottom-cu"/><g><defs><g id="pcb_bottom-sm" fill="currentColor" stroke="currentColor"><path d="M 1058.9 85.6 L 1007.7 85.6 L 1007.7 140.7 L 1058.9 140.7 L 1058.9 85.6 L 1058.9 85.6 Z"/><path d="M 905.3 85.6 L 854.1 85.6 L 854.1 140.7 L 905.3 140.7 L 905.3 85.6 L 905.3 85.6 Z"/><path d="M 905.3 237.2 L 854.1 237.2 L 854.1 292.3 L 905.3 292.3 L 905.3 237.2 L 905.3 237.2 Z"/><path d="M 1058.9 237.2 L 1007.7 237.2 L 1007.7 292.3 L 1058.9 292.3 L 1058.9 237.2 L 1058.9 237.2 Z"/><path d="M 517.9 288.3 L 455.5 279.5 L 442.4 373.1 L 504.7 381.8 L 517.9 288.3 L 517.9 288.3 Z"/><path d="M 123.5 520 L 115.3 425.9 L 115.3 425.9 L 52.5 431.4 L 60.7 525.5 L 123.5 520 L 123.5 520 Z"/><path d="M 1485.8 490.4 L 1449.6 438.8 L 1372.2 493 L 1408.4 544.6 L 1485.8 490.4 L 1485.8 490.4 Z"/><path d="M 1015.6 523 L 822.7 523 L 822.7 735.6 L 1015.6 735.6 L 1015.6 523 L 1015.6 523 Z"/><path d="M 489.5 1342.2 L 502.7 1339.6 L 540 1324.1 L 573.5 1301.7 L 602 1273.2 L 624.4 1239.7 L 635.4 1213.2 L 639.9 1202.4 L 647.7 1162.9 L 647.7 1122.5 L 642.5 1096.2 L 639.9 1083 L 624.4 1045.7 L 602 1012.2 L 573.5 983.7 L 540 961.3 L 502.7 945.8 L 489.5 943.2 L 463.2 938 L 422.8 938 L 396.5 943.2 L 383.3 945.8 L 346 961.3 L 312.5 983.7 L 284 1012.2 L 261.6 1045.7 L 246.1 1083 L 243.5 1096.2 L 238.3 1122.5 L 238.3 1162.9 L 246.1 1202.4 L 250.6 1213.2 L 261.6 1239.7 L 284 1273.2 L 312.5 1301.7 L 346 1324.1 L 383.3 1339.6 L 396.5 1342.2 L 422.8 1347.4 L 463.2 1347.4 L 489.5 1342.2 L 489.5 1342.2 Z"/><path d="M 1233.1 1059.7 L 1116.9 1059.7 L 1116.9 1117.1 L 1233.1 1117.1 L 1233.1 1059.7 L 1233.1 1059.7 Z"/><path d="M 823.3 1072.2 L 682.4 1072.2 L 682.4 1213.2 L 823.3 1213.2 L 823.3 1072.2 L 823.3 1072.2 Z"/><path d="M 203.6 1072.2 L 62.7 1072.2 L 62.7 1213.2 L 203.6 1213.2 L 203.6 1072.2 L 203.6 1072.2 Z"/><path d="M 1233.1 1146.3 L 1116.9 1146.3 L 1116.9 1203.7 L 1233.1 1203.7 L 1233.1 1146.3 L 1233.1 1146.3 Z"/><path d="M 940 1311.5 L 940 1311.5 L 940 1311.5 L 946.9 1308.7 L 946.9 1308.7 L 953.1 1304.5 L 958.4 1299.3 L 958.4 1299.3 L 962.6 1293.1 L 964.8 1287.7 L 965.4 1286.2 L 966.9 1278.9 L 966.9 1271.4 L 965.4 1264.1 L 965.4 1264.1 L 962.6 1257.2 L 962.6 1257.2 L 958.4 1251 L 953.1 1245.7 L 950 1243.6 L 946.9 1241.6 L 941.6 1239.4 L 940 1238.7 L 932.7 1237.3 L 925.3 1237.3 L 918 1238.7 L 916.4 1239.4 L 911.1 1241.6 L 908 1243.6 L 904.9 1245.7 L 899.6 1251 L 895.4 1257.2 L 895.4 1257.2 L 892.6 1264.1 L 892.6 1264.1 L 891.1 1271.4 L 891.1 1278.9 L 892.6 1286.2 L 893.2 1287.7 L 895.4 1293.1 L 899.6 1299.3 L 899.6 1299.3 L 904.9 1304.5 L 911.1 1308.7 L 911.1 1308.7 L 918 1311.5 L 918 1311.5 L 918 1311.5 L 925.3 1313 L 932.7 1313 L 940 1311.5 L 940 1311.5 Z"/><path d="M 1005.8 1438.3 L 812.9 1438.3 L 812.9 1670.6 L 1005.8 1670.6 L 1005.8 1438.3 L 1005.8 1438.3 Z"/><path d="M 1485.8 1757 L 1408.4 1702.8 L 1372.2 1754.4 L 1449.6 1808.6 L 1485.8 1757 L 1485.8 1757 Z"/><path d="M 123.5 1726.4 L 60.7 1720.9 L 52.5 1815 L 115.3 1820.5 L 123.5 1726.4 L 123.5 1726.4 Z"/><path d="M 519.2 1958.8 L 502.8 1865.7 L 440.8 1876.6 L 457.2 1969.7 L 519.2 1958.8 L 519.2 1958.8 Z"/></g><mask id="pcb_bottom-sm_mask" color="#000"><rect x="2" y="1.9" width="1673.9" height="2243.6" fill="#fff"/><use xlink:href="#pcb_bottom-sm"/></mask><mask id="pcb_bottom-cu_finish-mask" color="#fff"><use xlink:href="#pcb_bottom-cu"/></mask></defs><g mask="url(#pcb_bottom-sm_mask)"><rect x="2" y="1.9" width="1673.9" height="2243.6" fill="currentColor" class="pcb_board-sm"/><g id="pcb_bottom-ss" class="pcb_board-ss" fill="currentColor" stroke="currentColor"><path stroke-width="7.9" fill="none" d="M 1020.1 1761.6 L 1014.4 1759.7 M 1014.4 1759.7 L 1005.1 1759.7 M 1005.1 1759.7 L 1001.3 1761.6 M 1001.3 1761.6 L 999.4 1763.5 M 999.4 1763.5 L 997.6 1767.2 M 997.6 1767.2 L 997.6 1771 M 997.6 1771 L 999.4 1774.7 M 999.4 1774.7 L 1001.3 1776.6 M 1001.3 1776.6 L 1005.1 1778.5 M 1005.1 1778.5 L 1012.6 1780.3 M 1012.6 1780.3 L 1016.3 1782.2 M 1016.3 1782.2 L 1018.2 1784.1 M 1018.2 1784.1 L 1020.1 1787.8 M 1020.1 1787.8 L 1020.1 1791.6 M 1020.1 1791.6 L 1018.2 1795.3 M 1018.2 1795.3 L 1016.3 1797.2 M 1016.3 1797.2 L 1012.6 1799.1 M 1012.6 1799.1 L 1003.2 1799.1 M 1003.2 1799.1 L 997.6 1797.2 M 980.7 1759.7 L 980.7 1799.1 M 980.7 1799.1 L 967.6 1771 M 967.6 1771 L 954.4 1799.1 M 954.4 1799.1 L 954.4 1759.7 M 922.6 1780.3 L 916.9 1778.5 M 916.9 1778.5 L 915.1 1776.6 M 915.1 1776.6 L 913.2 1772.8 M 913.2 1772.8 L 913.2 1767.2 M 913.2 1767.2 L 915.1 1763.5 M 915.1 1763.5 L 916.9 1761.6 M 916.9 1761.6 L 920.7 1759.7 M 920.7 1759.7 L 935.7 1759.7 M 935.7 1759.7 L 935.7 1799.1 M 935.7 1799.1 L 922.6 1799.1 M 922.6 1799.1 L 918.8 1797.2 M 918.8 1797.2 L 916.9 1795.3 M 916.9 1795.3 L 915.1 1791.6 M 915.1 1791.6 L 915.1 1787.8 M 915.1 1787.8 L 916.9 1784.1 M 916.9 1784.1 L 918.8 1782.2 M 918.8 1782.2 L 922.6 1780.3 M 922.6 1780.3 L 935.7 1780.3 M 881.3 1761.6 L 885.1 1759.7 M 885.1 1759.7 L 892.6 1759.7 M 892.6 1759.7 L 896.3 1761.6 M 896.3 1761.6 L 898.2 1765.3 M 898.2 1765.3 L 898.2 1780.3 M 898.2 1780.3 L 896.3 1784.1 M 896.3 1784.1 L 892.6 1786 M 892.6 1786 L 885.1 1786 M 885.1 1786 L 881.3 1784.1 M 881.3 1784.1 L 879.4 1780.3 M 879.4 1780.3 L 879.4 1776.6 M 879.4 1776.6 L 898.2 1772.8 M 847.6 1761.6 L 851.3 1759.7 M 851.3 1759.7 L 858.8 1759.7 M 858.8 1759.7 L 862.6 1761.6 M 862.6 1761.6 L 864.4 1765.3 M 864.4 1765.3 L 864.4 1780.3 M 864.4 1780.3 L 862.6 1784.1 M 862.6 1784.1 L 858.8 1786 M 858.8 1786 L 851.3 1786 M 851.3 1786 L 847.6 1784.1 M 847.6 1784.1 L 845.7 1780.3 M 845.7 1780.3 L 845.7 1776.6 M 845.7 1776.6 L 864.4 1772.8 M 1021 1732.2 L 1007.9 1692.8 M 1007.9 1692.8 L 994.7 1732.2 M 961 1692.8 L 983.5 1692.8 M 972.2 1692.8 L 972.2 1732.2 M 972.2 1732.2 L 976 1726.5 M 976 1726.5 L 979.7 1722.8 M 979.7 1722.8 L 983.5 1720.9 M 944.1 1696.5 L 942.2 1694.7 M 942.2 1694.7 L 944.1 1692.8 M 944.1 1692.8 L 946 1694.7 M 946 1694.7 L 944.1 1696.5 M 944.1 1696.5 L 944.1 1692.8 M 904.8 1692.8 L 927.2 1692.8 M 916 1692.8 L 916 1732.2 M 916 1732.2 L 919.8 1726.5 M 919.8 1726.5 L 923.5 1722.8 M 923.5 1722.8 L 927.2 1720.9 M 887.9 1696.5 L 886 1694.7 M 886 1694.7 L 887.9 1692.8 M 887.9 1692.8 L 889.8 1694.7 M 889.8 1694.7 L 887.9 1696.5 M 887.9 1696.5 L 887.9 1692.8 M 848.5 1692.8 L 871 1692.8 M 859.8 1692.8 L 859.8 1732.2 M 859.8 1732.2 L 863.5 1726.5 M 863.5 1726.5 L 867.3 1722.8 M 867.3 1722.8 L 871 1720.9"/><path stroke-width="5.9" fill="none" d="M 949 1461.7 L 929 1601.7 M 959 1461.7 L 939 1601.7 M 979 781.7 L 889 1601.7 M 989 781.7 L 899 1601.7 M 829 601.7 L 829 1401.7 M 879 1601.7 L 979 1601.7 M 1029 601.7 L 1029 1401.7 M 979 1461.7 L 979 1601.7 M 879 1461.7 L 879 1601.7 M 829 1401.7 L 879 1601.7 M 979 1601.7 L 1029 1401.7 M 879 1461.7 L 979 1461.7 M 919 781.7 L 1029 781.7 M 919 601.7 A 127.27922061357856 127.27922061357856 0 0 0 919 781.7 M 849 781.7 L 829 781.7 M 849 601.7 L 849 781.7 M 829 601.7 L 1029 601.7 M 704.1 1142.7 A 261.1 261.1 0 0 1 181.89999999999998 1142.7 A 261.1 261.1 0 0 1 704.1 1142.7"/><path stroke-width="7.9" fill="none" d="M 703 1285.2 L 703 1219.9 M 703 1065.5 L 703 1002.1 M 703 1002.1 L 583.6 877.9 M 583.6 877.9 L 302.4 877.9 M 302.4 877.9 L 183 1002.1 M 183 1002.1 L 183 1065.5 M 183 1219.9 L 183 1283.3 M 619.8 1340.3 A 353.57697888861486 353.57697888861486 0 0 0 266.2 1340.3 M 266.2 1340.3 A 65.18051856191389 65.18051856191389 0 0 1 183 1285.2 M 703 1285.3 A 59.7013400184619 59.7013400184619 0 0 1 619.4 1340.3 M 183 1065.5 L 182.8 1053.7"/><path stroke-width="4.7" fill="none" d="M 1111.6 1096.3 L 1111.6 1167.1 M 1238.4 1167.1 L 1238.4 1070.7"/><path stroke-width="5.9" fill="none" d="M 1006.5 268.9 L 1006.5 108.9 M 906.5 268.9 L 906.5 108.9 M 906.5 108.9 L 906.5 268.9 M 1007.7 267.7 L 1051 267.7 M 862 267.7 L 905.3 267.7 M 905.3 267.7 L 862 267.7 M 1007.7 110.2 L 1051 110.2 M 1051 110.2 L 1007.7 110.2 M 862 110.2 L 905.3 110.2 M 905.3 110.2 L 862 110.2 M 1007.7 283.4 L 1007.7 267.7 M 905.3 283.4 L 905.3 267.7 M 1007.7 94.5 L 1007.7 110.2 M 905.3 94.5 L 905.3 110.2 M 905.3 110.2 L 905.3 94.5 M 905.3 283.4 L 1007.7 283.4 M 905.3 94.5 L 1007.7 94.5 M 1007.7 94.5 L 905.3 94.5 M 1051 267.7 L 1051 110.2 M 862 267.7 L 862 110.2 M 1051 188.9 A 94.5 94.5 0 0 1 862 188.9 A 94.5 94.5 0 0 1 1051 188.9"/></g></g><use class="pcb_board-cf" mask="url(#pcb_bottom-cu_finish-mask)" xlink:href="#pcb_bottom-sm"/></g></g></svg>